<?xml version="1.0" encoding="UTF-8"?>
<!DOCTYPE svg PUBLIC "-//W3C//DTD SVG 1.1//EN" "http://www.w3.org/Graphics/SVG/1.1/DTD/svg11.dtd">
<!-- Creator: CorelDRAW 2021 (64-Bit) -->
<svg xmlns="http://www.w3.org/2000/svg" xml:space="preserve" width="1920px" height="1920px" version="1.1" style="shape-rendering:geometricPrecision; text-rendering:geometricPrecision; image-rendering:optimizeQuality; fill-rule:evenodd; clip-rule:evenodd"
viewBox="0 0 1068.94 1068.94"
 xmlns:xlink="http://www.w3.org/1999/xlink"
 xmlns:xodm="http://www.corel.com/coreldraw/odm/2003">
 <defs>
  <style type="text/css">
   <![CDATA[
    .str1 {stroke:#003399;stroke-width:2.78;stroke-linecap:round;stroke-linejoin:round;stroke-miterlimit:22.9256}
    .str0 {stroke:black;stroke-width:1.11;stroke-linecap:round;stroke-linejoin:round;stroke-miterlimit:22.9256}
    .str2 {stroke:white;stroke-width:3.34;stroke-linecap:round;stroke-linejoin:round;stroke-miterlimit:22.9256}
    .fil3 {fill:none}
    .fil12 {fill:black}
    .fil0 {fill:#16368B}
    .fil7 {fill:#16368B}
    .fil4 {fill:#333333}
    .fil10 {fill:#503D33}
    .fil8 {fill:#A30B24}
    .fil1 {fill:#E6B800}
    .fil9 {fill:#E6CC05}
    .fil14 {fill:red}
    .fil15 {fill:yellow}
    .fil18 {fill:white}
    .fil17 {fill:#003399;fill-rule:nonzero}
    .fil16 {fill:#A30B24;fill-rule:nonzero}
    .fil13 {fill:white;fill-rule:nonzero}
    .fil6 {fill:black;fill-opacity:0.101961}
    .fil5 {fill:white;fill-opacity:0.301961}
    .fil11 {fill:black;fill-opacity:0.501961}
    .fil2 {fill:#E6C850;fill-opacity:0.501961}
   ]]>
  </style>
   <clipPath id="id0">
    <path d="M0 0l1068.94 0 0 1068.94 -1068.94 0 0 -1068.94z"/>
   </clipPath>
   <clipPath id="id1">
    <path d="M401.59 573.69l54.88 0c0.45,0.67 0.97,1.3 1.56,1.89l67.45 67.45c4.94,4.95 13.04,4.95 17.99,0l67.44 -67.45c0.59,-0.59 1.11,-1.22 1.56,-1.89l54.88 0c18.82,0 33.09,15.44 34.21,34.21l17.45 292.61 -373.42 0 21.79 -292.61c1.4,-18.76 15.39,-34.21 34.21,-34.21z"/>
   </clipPath>
   <clipPath id="id2">
    <path d="M456.47 573.69l27.27 0 44.64 44.65c3.35,3.35 8.83,3.35 12.18,0l44.65 -44.65 27.26 0c-0.45,0.67 -0.97,1.3 -1.56,1.89l-67.44 67.45c-4.95,4.95 -13.05,4.95 -17.99,0l-67.45 -67.45c-0.59,-0.59 -1.11,-1.22 -1.56,-1.89z"/>
   </clipPath>
   <clipPath id="id3">
    <path d="M534.47 167.28c86.98,0 158.8,71.06 169.69,163.05 19.98,2.76 35.36,19.9 35.36,40.63 0,22.66 -18.37,41.02 -41.02,41.02 -0.36,0 -0.71,0 -1.07,-0.01 -19.29,65.82 -70.91,115.78 -134.39,127.46l0 34.39 22.17 0 -44.65 44.65c-3.35,3.35 -8.83,3.35 -12.18,0l-44.64 -44.65 22.16 0 0 -34.39c-63.48,-11.68 -115.1,-61.64 -134.39,-127.46l-1.07 0.01c-22.65,0 -41.02,-18.36 -41.02,-41.02 0,-20.73 15.38,-37.87 35.36,-40.63 10.89,-91.99 82.71,-163.05 169.69,-163.05z"/>
   </clipPath>
   <clipPath id="id4">
    <path d="M958.64 32.54c43.54,0 78.83,35.3 78.83,78.83 0,43.54 -35.29,78.84 -78.83,78.84 -43.54,0 -78.83,-35.3 -78.83,-78.84 0,-43.53 35.29,-78.83 78.83,-78.83z"/>
   </clipPath>
 </defs>
 <g id="Capa_x0020_1">
  <metadata id="CorelCorpID_0Corel-Layer"/>
  <polygon class="fil0" points="0,0 1068.94,0 1068.94,1068.94 0,1068.94 "/>
  <g style="clip-path:url(#id0)">
   <g id="_3075411170848">
    <rect class="fil1 str0" x="-63.92" y="-47.46" width="1187.92" height="1156.91"/>
    <path class="fil2" d="M939.8 920.24c49.75,-219.59 -32.54,-504.46 -287.89,-513.69 249.01,104.58 239.55,409.61 110.99,614.07 115.17,-193.47 124.94,-489.82 -115.06,-577.51 204.5,176.41 101.25,463.59 -84.2,618.31 169.32,-148.41 270.18,-427.24 69.03,-584.8 139.98,230.97 -46.96,472.18 -271.15,562.03 206.9,-88.83 388.99,-322.84 246.37,-534.85 61.76,262.93 -190.58,434.56 -431.56,450.73 224.23,-20.55 469.72,-186.83 399.6,-432.54 -22.52,269.15 -315.55,354.41 -549.73,295.32 219.6,49.75 504.46,-32.54 513.7,-287.89 -104.59,249.01 -409.62,239.55 -614.07,110.99 193.47,115.17 489.81,124.93 577.51,-115.06 -176.42,204.5 -463.59,101.25 -618.31,-84.21 148.41,169.33 427.23,270.19 584.8,69.04 -230.98,139.98 -472.18,-46.97 -562.03,-271.15 88.83,206.89 322.84,388.99 534.85,246.37 -262.93,61.75 -434.57,-190.58 -450.73,-431.56 20.54,224.22 186.83,469.71 432.53,399.59 -269.14,-22.52 -354.41,-315.54 -295.31,-549.72 -49.75,219.59 32.54,504.46 287.89,513.69 -249.01,-104.58 -239.55,-409.61 -110.99,-614.07 -115.17,193.48 -124.94,489.82 115.06,577.52 -204.5,-176.42 -101.25,-463.6 84.2,-618.32 -169.32,148.42 -270.18,427.25 -69.03,584.81 -139.98,-230.98 46.96,-472.19 271.15,-562.04 -206.89,88.83 -388.99,322.85 -246.37,534.85 -61.76,-262.92 190.58,-434.56 431.56,-450.73 -224.22,20.55 -469.72,186.84 -399.59,432.54 22.51,-269.14 315.54,-354.41 549.72,-295.31 -219.59,-49.75 -504.47,32.54 -513.7,287.88 104.59,-249.01 409.62,-239.55 614.08,-110.98 -193.48,-115.18 -489.83,-124.94 -577.52,115.05 176.41,-204.5 463.6,-101.25 618.31,84.21 -148.41,-169.32 -427.25,-270.19 -584.8,-69.04 230.98,-139.98 472.19,46.97 562.03,271.16 -88.83,-206.9 -322.85,-389 -534.85,-246.38 262.93,-61.75 434.57,190.58 450.74,431.56 -20.55,-224.22 -186.84,-469.71 -432.54,-399.59 269.14,22.52 354.4,315.55 295.31,549.72z"/>
   </g>
  </g>
  <polygon class="fil3" points="0,0 1068.94,0 1068.94,1068.94 0,1068.94 "/>
  <path class="fil3 str1" d="M62.04 32.27l910.78 0c15.98,0 63.14,44.04 63.14,60.02l0 855.82c0,15.98 -13.08,29.05 -29.06,29.05l-944.86 0c-15.98,0 -29.06,-13.07 -29.06,-29.05l0 -886.78c0,-15.98 13.08,-29.06 29.06,-29.06z"/>
  <path class="fil4" d="M401.59 573.69l54.88 0c0.45,0.67 0.97,1.3 1.56,1.89l67.45 67.45c4.94,4.95 13.04,4.95 17.99,0l67.44 -67.45c0.59,-0.59 1.11,-1.22 1.56,-1.89l54.88 0c18.82,0 33.09,15.44 34.21,34.21l17.45 292.61 -373.42 0 21.79 -292.61c1.4,-18.76 15.39,-34.21 34.21,-34.21z"/>
  <g style="clip-path:url(#id1)">
   <g id="_3075411173248">
    <g>
     <path id="_1" class="fil5" d="M261.82 503.25l272.65 0 0 76.5 -114.01 0c-15.45,0 -28.09,12.64 -28.09,28.09l0 406.8c0,2.81 0.42,5.53 1.2,8.1l-131.75 0 0 -519.49z"/>
     <path class="fil6" d="M807.12 503.25l-272.65 0 0 76.5 115.93 0c15.45,0 28.09,12.64 28.09,28.09l0 247.54c-150.19,17.44 -294.26,8.69 -432.54,-24.89 0,66.57 0,133.14 0,199.71 192.99,0 385.97,0 578.96,0 0,-66.57 0,-133.14 0,-199.71 -5.94,1.32 -11.87,2.6 -17.79,3.85l0 -331.09z"/>
    </g>
    <rect class="fil7" x="272.25" y="515.12" width="104.89" height="430.24"/>
    <rect class="fil8" x="377.14" y="515.12" width="104.89" height="430.24"/>
    <rect class="fil7" x="482.03" y="515.12" width="104.89" height="430.24"/>
    <rect class="fil8" x="586.92" y="515.12" width="104.89" height="430.24"/>
    <rect class="fil7" x="691.8" y="515.12" width="104.89" height="430.24"/>
   </g>
  </g>
  <path class="fil3" d="M401.59 573.69l54.88 0c0.45,0.67 0.97,1.3 1.56,1.89l67.45 67.45c4.94,4.95 13.04,4.95 17.99,0l67.44 -67.45c0.59,-0.59 1.11,-1.22 1.56,-1.89l54.88 0c18.82,0 33.09,15.44 34.21,34.21l17.45 292.61 -373.42 0 21.79 -292.61c1.4,-18.76 15.39,-34.21 34.21,-34.21z"/>
  <path class="fil9" d="M456.47 573.69l27.27 0 44.64 44.65c3.35,3.35 8.83,3.35 12.18,0l44.65 -44.65 27.26 0c-0.45,0.67 -0.97,1.3 -1.56,1.89l-67.44 67.45c-4.95,4.95 -13.05,4.95 -17.99,0l-67.45 -67.45c-0.59,-0.59 -1.11,-1.22 -1.56,-1.89z"/>
  <g style="clip-path:url(#id2)">
  </g>
  <path id="_1_0" class="fil3" d="M456.47 573.69l27.27 0 44.64 44.65c3.35,3.35 8.83,3.35 12.18,0l44.65 -44.65 27.26 0c-0.45,0.67 -0.97,1.3 -1.56,1.89l-67.44 67.45c-4.95,4.95 -13.05,4.95 -17.99,0l-67.45 -67.45c-0.59,-0.59 -1.11,-1.22 -1.56,-1.89z"/>
  <path class="fil10" d="M534.47 167.28c86.98,0 158.8,71.06 169.69,163.05 19.98,2.76 35.36,19.9 35.36,40.63 0,22.66 -18.37,41.02 -41.02,41.02 -0.36,0 -0.71,0 -1.07,-0.01 -19.29,65.82 -70.91,115.78 -134.39,127.46l0 34.39 22.17 0 -44.65 44.65c-3.35,3.35 -8.83,3.35 -12.18,0l-44.64 -44.65 22.16 0 0 -34.39c-63.48,-11.68 -115.1,-61.64 -134.39,-127.46l-1.07 0.01c-22.65,0 -41.02,-18.36 -41.02,-41.02 0,-20.73 15.38,-37.87 35.36,-40.63 10.89,-91.99 82.71,-163.05 169.69,-163.05z"/>
  <g style="clip-path:url(#id3)">
   <g id="_3075411175984">
    <path id="_1_1" class="fil11" d="M635.1 505.39c-5.06,31.07 -48.95,55.36 -102.36,55.36 -53.4,0 -97.29,-24.29 -102.36,-55.36 28.64,22.94 64.04,36.51 102.36,36.51 38.33,0 73.73,-13.57 102.36,-36.51z"/>
   </g>
  </g>
  <path class="fil3" d="M534.47 167.28c86.98,0 158.8,71.06 169.69,163.05 19.98,2.76 35.36,19.9 35.36,40.63 0,22.66 -18.37,41.02 -41.02,41.02 -0.36,0 -0.71,0 -1.07,-0.01 -19.29,65.82 -70.91,115.78 -134.39,127.46l0 34.39 22.17 0 -44.65 44.65c-3.35,3.35 -8.83,3.35 -12.18,0l-44.64 -44.65 22.16 0 0 -34.39c-63.48,-11.68 -115.1,-61.64 -134.39,-127.46l-1.07 0.01c-22.65,0 -41.02,-18.36 -41.02,-41.02 0,-20.73 15.38,-37.87 35.36,-40.63 10.89,-91.99 82.71,-163.05 169.69,-163.05z"/>
  <path class="fil12" d="M697.35 343.13c-2.99,0 -5.87,0.49 -8.57,1.38 0.57,-0.03 1.15,-0.05 1.73,-0.05 14.25,0 25.8,11.55 25.8,25.8 0,14.25 -11.55,25.8 -25.8,25.8 -0.58,0 -1.16,-0.02 -1.73,-0.06 2.69,0.9 5.58,1.39 8.57,1.39 14.98,0 27.13,-12.15 27.13,-27.13 0,-14.98 -12.15,-27.13 -27.13,-27.13zm-325.76 0c2.99,0 5.87,0.49 8.57,1.38 -0.57,-0.03 -1.15,-0.05 -1.73,-0.05 -14.25,0 -25.8,11.55 -25.8,25.8 0,14.25 11.55,25.8 25.8,25.8 0.58,0 1.16,-0.02 1.74,-0.06 -2.7,0.9 -5.58,1.39 -8.58,1.39 -14.98,0 -27.13,-12.15 -27.13,-27.13 0,-14.98 12.15,-27.13 27.13,-27.13z"/>
  <path class="fil13" d="M523.53 798.76c0,-0.73 -0.02,-1.85 -0.08,-3.36 -0.05,-1.47 -0.08,-2.57 -0.08,-3.24 0,-7.48 0.46,-13.91 1.37,-19.25 0.94,-5.33 2.41,-10.07 4.45,-14.2 3.3,-6.97 10.8,-16.78 22.49,-29.46 4.34,-4.69 7.61,-8.34 9.81,-10.91 -2.47,1.15 -4.91,2.01 -7.29,2.54 -2.41,0.57 -4.75,0.83 -7,0.83 -3.21,0 -7.37,-0.53 -12.54,-1.6 -5.15,-1.08 -8.71,-1.61 -10.64,-1.61 -5.55,0 -9.55,1.93 -11.99,5.76 -2.44,3.86 -3.64,10.29 -3.64,19.36l0 0.93 -11.07 0 0 -44.71 11.76 0 0 11.42c3.03,-4.34 6.25,-7.45 9.63,-9.35 3.38,-1.91 7.4,-2.87 12.06,-2.87 4.45,0 10.13,1.31 17.08,3.94 6.94,2.62 11.55,3.94 13.8,3.94 2.2,0 4.05,-0.56 5.58,-1.66 1.5,-1.1 2.7,-2.79 3.59,-5.1l10.29 0c-0.48,6.97 -5.12,16.86 -13.96,29.7 -4.13,6.01 -7.19,10.7 -9.2,14.05 -4.34,7.4 -7.5,14.85 -9.51,22.36 -2.01,7.5 -3.03,15.84 -3.03,24.95 0,2.04 0,3.57 0.02,4.59 0.03,1.02 0.08,2.01 0.14,2.95l-22.04 0z"/>
  <circle class="fil1" cx="958.64" cy="111.38" r="95.67"/>
  <g>
  </g>
  <g style="clip-path:url(#id4)">
   <g>
    <rect class="fil14" x="853.82" y="32.61" width="237.87" height="52.37"/>
    <rect class="fil15" x="853.82" y="84.98" width="237.87" height="52.37"/>
    <rect class="fil14" x="853.82" y="137.35" width="237.87" height="52.37"/>
   </g>
  </g>
  <path class="fil3 str2" d="M958.64 32.54c43.54,0 78.83,35.3 78.83,78.83 0,43.54 -35.29,78.84 -78.83,78.84 -43.54,0 -78.83,-35.3 -78.83,-78.84 0,-43.53 35.29,-78.83 78.83,-78.83z"/>
  <path class="fil16" d="M192.67 1022.65l0.74 -3.68 -2.76 0c-0.48,0 -0.89,-0.17 -1.24,-0.52 -0.33,-0.35 -0.51,-0.76 -0.51,-1.23l0 -0.03c0,-0.48 0.18,-0.89 0.51,-1.24 0.35,-0.35 0.76,-0.52 1.24,-0.52l3.47 0 0.79 -3.89c0.1,-0.48 0.35,-0.84 0.76,-1.11 0.3,-0.19 0.62,-0.28 0.97,-0.28 0.12,0 0.26,0.01 0.39,0.03l0.03 0.02c0.42,0.08 0.78,0.31 1.06,0.71 0.2,0.3 0.29,0.62 0.29,0.96 0,0.13 -0.01,0.25 -0.04,0.38l-0.63 3.18 3.58 0 0.79 -3.89c0.09,-0.48 0.35,-0.84 0.76,-1.11 0.29,-0.19 0.61,-0.28 0.95,-0.28 0.13,0 0.25,0.01 0.37,0.03l0.05 0.02c0.45,0.08 0.81,0.31 1.08,0.71 0.19,0.3 0.28,0.62 0.28,0.96 0,0.13 -0.01,0.25 -0.03,0.38l-0.63 3.18 2.82 0c0.48,0 0.89,0.17 1.21,0.52 0.35,0.35 0.52,0.76 0.52,1.24l0 0.03c0,0.47 -0.17,0.88 -0.52,1.23 -0.32,0.35 -0.73,0.52 -1.21,0.52l-3.53 0 -0.75 3.68 3.01 0c0.49,0 0.9,0.18 1.23,0.53 0.35,0.34 0.52,0.76 0.52,1.23l0 0.05c0,0.46 -0.17,0.86 -0.52,1.22 -0.33,0.34 -0.74,0.52 -1.23,0.52l-3.72 0 -0.85 4.19c-0.08,0.47 -0.33,0.84 -0.74,1.1 -0.3,0.19 -0.61,0.29 -0.95,0.29 -0.13,0 -0.26,-0.01 -0.38,-0.03l-0.05 -0.02c-0.44,-0.08 -0.8,-0.33 -1.07,-0.73 -0.2,-0.29 -0.31,-0.61 -0.31,-0.95 0,-0.12 0.02,-0.25 0.05,-0.37l0.68 -3.48 -3.57 0 -0.86 4.19c-0.08,0.47 -0.33,0.84 -0.74,1.1 -0.3,0.19 -0.62,0.29 -0.98,0.29 -0.13,0 -0.26,-0.01 -0.4,-0.03l-0.03 -0.02c-0.42,-0.08 -0.77,-0.33 -1.04,-0.73 -0.2,-0.29 -0.3,-0.61 -0.3,-0.95 0,-0.12 0.01,-0.25 0.05,-0.37l0.68 -3.48 -2.57 0c-0.48,0 -0.9,-0.18 -1.24,-0.52 -0.34,-0.36 -0.51,-0.76 -0.51,-1.22l0 -0.05c0,-0.47 0.17,-0.89 0.51,-1.23 0.34,-0.35 0.76,-0.53 1.24,-0.53l3.28 0zm4.36 -3.68l-0.74 3.68 3.57 0 0.74 -3.68 -3.57 0z"/>
  <path id="_1_2" class="fil16" d="M219.8 1008.38c2.35,0 4.35,0.83 6.01,2.5 1.67,1.66 2.5,3.65 2.5,5.99l0 7.71c0,2.34 -0.83,4.34 -2.5,6.01 -1.66,1.67 -3.66,2.5 -6.01,2.5 -2.32,0 -4.32,-0.83 -5.99,-2.5 -1.67,-1.67 -2.5,-3.67 -2.5,-6.01l0 -7.71c0,-2.34 0.83,-4.33 2.5,-5.99 1.67,-1.67 3.67,-2.5 5.99,-2.5zm0 3.95c-1.27,0 -2.36,0.45 -3.27,1.36 -0.89,0.9 -1.34,1.99 -1.34,3.27l0 7.53c0,1.28 0.45,2.37 1.34,3.27 0.91,0.91 2,1.36 3.27,1.36 1.28,0 2.37,-0.45 3.28,-1.36 0.91,-0.9 1.36,-1.99 1.36,-3.27l0 -7.53c0,-1.28 -0.45,-2.37 -1.36,-3.27 -0.91,-0.91 -2,-1.36 -3.28,-1.36z"/>
  <path id="_2" class="fil16" d="M239.96 1008.38c2.35,0 4.35,0.83 6.01,2.5 1.67,1.66 2.5,3.65 2.5,5.99l0 7.71c0,2.34 -0.83,4.34 -2.5,6.01 -1.66,1.67 -3.66,2.5 -6.01,2.5 -2.32,0 -4.32,-0.83 -5.99,-2.5 -1.67,-1.67 -2.5,-3.67 -2.5,-6.01l0 -7.71c0,-2.34 0.83,-4.33 2.5,-5.99 1.67,-1.67 3.67,-2.5 5.99,-2.5zm0 3.95c-1.27,0 -2.36,0.45 -3.27,1.36 -0.89,0.9 -1.34,1.99 -1.34,3.27l0 7.53c0,1.28 0.45,2.37 1.34,3.27 0.91,0.91 2,1.36 3.27,1.36 1.28,0 2.37,-0.45 3.28,-1.36 0.91,-0.9 1.36,-1.99 1.36,-3.27l0 -7.53c0,-1.28 -0.45,-2.37 -1.36,-3.27 -0.91,-0.91 -2,-1.36 -3.28,-1.36z"/>
  <path id="_3" class="fil16" d="M260.7 1008.39c1.92,0 3.57,0.68 4.93,2.04 1.36,1.36 2.04,3 2.04,4.92 0,1.68 -0.67,3.22 -2.02,4.58 -0.8,0.83 -2.21,1.86 -4.23,3.11 -1.99,1.25 -3.35,2.22 -4.06,2.91 -1.16,1.14 -1.74,2.24 -1.74,3.27l10.3 0c0.53,0 0.98,0.19 1.34,0.57 0.38,0.38 0.57,0.83 0.57,1.36l0 0.03c0,0.54 -0.19,0.98 -0.57,1.35 -0.36,0.37 -0.81,0.56 -1.34,0.56l-12.38 0c-0.51,0 -0.96,-0.19 -1.34,-0.56 -0.38,-0.37 -0.57,-0.81 -0.57,-1.35l0 -1.49c0,-1.94 0.67,-3.69 2.01,-5.26 0.92,-1.08 2.35,-2.24 4.29,-3.47 2.35,-1.51 3.73,-2.44 4.14,-2.77 1.15,-0.96 1.73,-1.9 1.73,-2.84 0,-0.85 -0.31,-1.58 -0.91,-2.18 -0.61,-0.62 -1.34,-0.92 -2.19,-0.92l-6.36 0c-0.53,0 -0.98,-0.19 -1.36,-0.55 -0.38,-0.38 -0.57,-0.84 -0.57,-1.36l0 -0.04c0,-0.52 0.19,-0.97 0.57,-1.36 0.38,-0.36 0.83,-0.55 1.36,-0.55l6.36 0z"/>
  <path id="_4" class="fil16" d="M283.85 1019.18l0 -3.47c0,-0.96 -0.34,-1.77 -1.02,-2.45 -0.67,-0.67 -1.49,-1.01 -2.45,-1.01l-2.07 0c-0.95,0 -1.76,0.34 -2.43,1.01 -0.68,0.68 -1.01,1.49 -1.01,2.45 0,0.96 0.33,1.78 1.01,2.45 0.67,0.68 1.48,1.02 2.43,1.02l5.54 0zm-3.47 -10.79c2.03,0 3.76,0.72 5.19,2.15 1.44,1.43 2.15,3.15 2.15,5.17l0 10.06c0,2.02 -0.71,3.74 -2.15,5.17 -1.43,1.43 -3.16,2.15 -5.19,2.15l-6.19 0c-0.53,0 -0.99,-0.19 -1.36,-0.56 -0.38,-0.38 -0.56,-0.83 -0.56,-1.35l0 -0.03c0,-0.53 0.18,-0.98 0.56,-1.36 0.37,-0.38 0.83,-0.57 1.36,-0.57l6.19 0c0.96,0 1.78,-0.33 2.45,-1 0.67,-0.67 1,-1.49 1,-2.45l0.02 -2.73 -5.54 0c-2.01,0 -3.74,-0.72 -5.17,-2.16 -1.43,-1.43 -2.15,-3.16 -2.15,-5.17 0,-2.02 0.72,-3.74 2.15,-5.17 1.43,-1.43 3.16,-2.15 5.17,-2.15l2.07 0z"/>
  <path class="fil17" d="M75.94 1015.15l11.2 0c0.87,0 1.63,0.32 2.28,0.94 0.64,0.65 0.96,1.42 0.96,2.31l0 0.06c0,0.91 -0.32,1.67 -0.96,2.28 -0.65,0.64 -1.41,0.96 -2.28,0.96l-11.2 0 0 14.46c0,0.91 -0.32,1.67 -0.97,2.28 -0.65,0.64 -1.41,0.96 -2.28,0.96l-0.08 0c-0.88,0 -1.64,-0.32 -2.28,-0.96 -0.65,-0.61 -0.98,-1.37 -0.98,-2.28l0 -28.9c0,-2.71 0.97,-5.02 2.88,-6.93 1.92,-1.92 4.23,-2.87 6.93,-2.87l8.24 0c0.88,0 1.64,0.31 2.28,0.93 0.65,0.66 0.98,1.43 0.98,2.31l0 0.06c0,0.9 -0.33,1.67 -0.98,2.31 -0.64,0.62 -1.4,0.94 -2.28,0.94l-8.24 0c-0.9,0 -1.66,0.31 -2.28,0.94 -0.63,0.63 -0.94,1.4 -0.94,2.31l0 7.89z"/>
  <path id="_1_3" class="fil17" d="M114.44 997.46c1.77,0 3.51,0.21 5.21,0.64 1.65,0.43 2.47,1.48 2.47,3.15l0 0.08c0,1.05 -0.43,1.91 -1.29,2.57 -0.57,0.45 -1.2,0.67 -1.88,0.67 -0.28,0 -0.58,-0.03 -0.89,-0.11 -1.2,-0.3 -2.4,-0.45 -3.62,-0.45 -3.98,0 -7.37,1.41 -10.18,4.22 -2.81,2.8 -4.21,6.2 -4.21,10.2 0,3.99 1.4,7.4 4.21,10.2 2.81,2.8 6.2,4.19 10.18,4.19 1.22,0 2.42,-0.14 3.62,-0.43 0.31,-0.06 0.61,-0.1 0.89,-0.1 0.68,0 1.31,0.22 1.88,0.67 0.86,0.64 1.29,1.5 1.29,2.58l0 0.05c0,1.69 -0.82,2.74 -2.47,3.17 -1.7,0.43 -3.44,0.64 -5.21,0.64 -5.78,0 -10.72,-2.05 -14.82,-6.15 -4.11,-4.09 -6.15,-9.03 -6.15,-14.82 0,-5.78 2.04,-10.72 6.15,-14.82 4.1,-4.11 9.04,-6.15 14.82,-6.15z"/>
  <path id="_2_4" class="fil17" d="M133.26 1014.54l7.39 -0.03c1.46,0 2.71,-0.51 3.73,-1.5 1.02,-1.02 1.53,-2.27 1.53,-3.74 0,-1.44 -0.51,-2.68 -1.53,-3.7 -1.04,-1.04 -2.28,-1.56 -3.73,-1.56l-6.4 0c-0.28,0 -0.52,0.1 -0.72,0.3 -0.18,0.19 -0.27,0.44 -0.27,0.72l0 9.51zm-6.58 -9.51c0,-2.1 0.74,-3.89 2.23,-5.37 1.49,-1.47 3.27,-2.2 5.34,-2.2l6.4 0c3.27,0 6.07,1.15 8.38,3.46 2.31,2.31 3.46,5.09 3.46,8.35 0,3.69 -1.15,6.5 -3.46,8.44 2.72,2.07 4.07,5.16 4.07,9.26 0,3.42 -1.21,6.35 -3.64,8.79 -2.44,2.42 -5.38,3.64 -8.81,3.64l-6.4 0c-2.07,0 -3.85,-0.74 -5.34,-2.22 -1.49,-1.49 -2.23,-3.28 -2.23,-5.35l0 -26.8zm13.97 27.79c1.62,0 3.01,-0.56 4.16,-1.68 1.13,-1.15 1.69,-2.54 1.69,-4.17 0,-1.63 -0.56,-3.02 -1.69,-4.17 -1.15,-1.14 -2.54,-1.71 -4.16,-1.71l-7.39 0 0 10.74c0,0.29 0.09,0.52 0.27,0.73 0.2,0.17 0.44,0.26 0.72,0.26l6.4 0z"/>
  <path class="fil17" d="M680.69 1029.6c0,0.89 0.32,1.65 0.94,2.29 0.63,0.62 1.39,0.93 2.29,0.93l7.81 0c0.89,0 1.66,0.32 2.31,0.97 0.65,0.65 0.97,1.42 0.97,2.31l0 0.06c0,0.91 -0.32,1.67 -0.97,2.28 -0.65,0.64 -1.42,0.96 -2.31,0.96l-7.81 0c-2.71,0 -5.02,-0.96 -6.93,-2.87 -1.92,-1.92 -2.87,-4.22 -2.87,-6.93l0 -28.9c0,-0.88 0.32,-1.65 0.96,-2.31 0.64,-0.62 1.4,-0.93 2.28,-0.93l0.09 0c0.88,0 1.64,0.31 2.28,0.93 0.64,0.66 0.96,1.43 0.96,2.31l0 28.9z"/>
  <path id="_1_5" class="fil17" d="M726.02 1036.16c0,0.91 -0.32,1.67 -0.97,2.28 -0.64,0.64 -1.4,0.96 -2.28,0.96l-0.08 0c-0.87,0 -1.63,-0.32 -2.28,-0.96 -0.65,-0.61 -0.97,-1.37 -0.97,-2.28l0 -11.98 -14.63 0 0 11.98c0,0.91 -0.32,1.67 -0.97,2.28 -0.65,0.64 -1.41,0.96 -2.28,0.96l-0.08 0c-0.88,0 -1.64,-0.32 -2.28,-0.96 -0.65,-0.61 -0.98,-1.37 -0.98,-2.28l0 -24.82c0,-3.83 1.37,-7.11 4.09,-9.83 2.72,-2.7 5.99,-4.05 9.8,-4.05 3.83,0 7.11,1.35 9.83,4.05 2.72,2.72 4.08,6 4.08,9.83l0 24.82zm-6.58 -18.54l0 -6.28c0,-2.02 -0.7,-3.75 -2.12,-5.18 -1.43,-1.43 -3.16,-2.15 -5.21,-2.15 -2.02,0 -3.75,0.72 -5.18,2.15 -1.42,1.43 -2.12,3.16 -2.12,5.18l0 6.28 14.63 0z"/>
  <path id="_2_6" class="fil17" d="M755.18 1029.6c0,0.89 0.32,1.65 0.95,2.29 0.62,0.62 1.38,0.93 2.28,0.93l7.81 0c0.9,0 1.67,0.32 2.31,0.97 0.65,0.65 0.97,1.42 0.97,2.31l0 0.06c0,0.91 -0.32,1.67 -0.97,2.28 -0.64,0.64 -1.41,0.96 -2.31,0.96l-7.81 0c-2.71,0 -5.02,-0.96 -6.93,-2.87 -1.92,-1.92 -2.87,-4.22 -2.87,-6.93l0 -28.9c0,-0.88 0.32,-1.65 0.96,-2.31 0.64,-0.62 1.41,-0.93 2.28,-0.93l0.09 0c0.88,0 1.64,0.31 2.28,0.93 0.64,0.66 0.96,1.43 0.96,2.31l0 28.9z"/>
  <path id="_3_7" class="fil17" d="M776.85 997.46c0.88,0 1.64,0.31 2.28,0.93 0.65,0.66 0.98,1.43 0.98,2.31l0 35.46c0,0.91 -0.33,1.67 -0.98,2.28 -0.64,0.64 -1.4,0.96 -2.28,0.96l-0.07 0c-0.88,0 -1.64,-0.32 -2.28,-0.96 -0.66,-0.61 -0.98,-1.37 -0.98,-2.28l0 -35.46c0,-0.88 0.32,-1.65 0.98,-2.31 0.64,-0.62 1.4,-0.93 2.28,-0.93l0.07 0z"/>
  <path id="_4_8" class="fil17" d="M806.98 997.46c6.14,0 11.29,2.25 15.45,6.76 0.58,0.65 0.88,1.38 0.88,2.2 0,0.13 -0.01,0.25 -0.02,0.35 -0.13,0.99 -0.57,1.74 -1.32,2.26l-0.06 0.05c-0.59,0.43 -1.21,0.65 -1.88,0.65 -0.12,0 -0.25,-0.01 -0.37,-0.02 -0.81,-0.08 -1.5,-0.43 -2.07,-1.05 -2.85,-3.1 -6.38,-4.65 -10.61,-4.65 -3.97,0 -7.36,1.41 -10.17,4.22 -2.82,2.8 -4.22,6.2 -4.22,10.2 0,3.99 1.4,7.4 4.22,10.2 2.81,2.8 6.2,4.19 10.17,4.19 3.57,0 6.69,-1.15 9.38,-3.46 2.66,-2.29 4.23,-4.84 4.7,-7.66l-13.4 0c-0.9,0 -1.67,-0.32 -2.31,-0.96 -0.63,-0.63 -0.95,-1.39 -0.95,-2.28l0 -0.06c0,-0.89 0.32,-1.66 0.95,-2.31 0.64,-0.62 1.41,-0.94 2.31,-0.94l17.05 0c0.9,0 1.67,0.32 2.31,0.94 0.62,0.65 0.95,1.42 0.97,2.31l0 0.03c0,5.79 -2.05,10.73 -6.15,14.82 -4.13,4.1 -9.08,6.15 -14.86,6.15 -5.77,0 -10.71,-2.05 -14.82,-6.15 -4.1,-4.09 -6.15,-9.03 -6.15,-14.82 0,-5.78 2.05,-10.72 6.15,-14.82 4.11,-4.11 9.05,-6.15 14.82,-6.15z"/>
  <path id="_5" class="fil17" d="M860.88 1036.16c0,0.91 -0.32,1.67 -0.97,2.28 -0.64,0.64 -1.4,0.96 -2.28,0.96l-0.08 0c-0.87,0 -1.63,-0.32 -2.28,-0.96 -0.64,-0.61 -0.97,-1.37 -0.97,-2.28l0 -11.98 -14.63 0 0 11.98c0,0.91 -0.32,1.67 -0.97,2.28 -0.65,0.64 -1.41,0.96 -2.28,0.96l-0.08 0c-0.88,0 -1.64,-0.32 -2.28,-0.96 -0.65,-0.61 -0.98,-1.37 -0.98,-2.28l0 -24.82c0,-3.83 1.37,-7.11 4.09,-9.83 2.73,-2.7 5.99,-4.05 9.8,-4.05 3.83,0 7.11,1.35 9.83,4.05 2.72,2.72 4.08,6 4.08,9.83l0 24.82zm-6.58 -18.54l0 -6.28c0,-2.02 -0.7,-3.75 -2.12,-5.18 -1.43,-1.43 -3.16,-2.15 -5.21,-2.15 -2.02,0 -3.75,0.72 -5.18,2.15 -1.42,1.43 -2.12,3.16 -2.12,5.18l0 6.28 14.63 0z"/>
  <path id="_6" class="fil17" d="M903.23 997.46c1.77,0 3.51,0.21 5.21,0.64 1.65,0.43 2.47,1.48 2.47,3.15l0 0.08c0,1.05 -0.43,1.91 -1.29,2.57 -0.57,0.45 -1.2,0.67 -1.88,0.67 -0.28,0 -0.57,-0.03 -0.89,-0.11 -1.2,-0.3 -2.4,-0.45 -3.62,-0.45 -3.98,0 -7.37,1.41 -10.18,4.22 -2.81,2.8 -4.21,6.2 -4.21,10.2 0,3.99 1.4,7.4 4.21,10.2 2.81,2.8 6.2,4.19 10.18,4.19 1.22,0 2.42,-0.14 3.62,-0.43 0.32,-0.06 0.61,-0.1 0.89,-0.1 0.68,0 1.31,0.22 1.88,0.67 0.86,0.64 1.29,1.5 1.29,2.58l0 0.05c0,1.69 -0.82,2.74 -2.47,3.17 -1.7,0.43 -3.44,0.64 -5.21,0.64 -5.78,0 -10.72,-2.05 -14.82,-6.15 -4.11,-4.09 -6.15,-9.03 -6.15,-14.82 0,-5.78 2.04,-10.72 6.15,-14.82 4.1,-4.11 9.04,-6.15 14.82,-6.15z"/>
  <path id="_7" class="fil17" d="M922.32 1029.6c0,0.89 0.32,1.65 0.94,2.29 0.62,0.62 1.38,0.93 2.28,0.93l7.81 0c0.9,0 1.67,0.32 2.31,0.97 0.65,0.65 0.97,1.42 0.97,2.31l0 0.06c0,0.91 -0.32,1.67 -0.97,2.28 -0.64,0.64 -1.41,0.96 -2.31,0.96l-7.81 0c-2.7,0 -5.01,-0.96 -6.93,-2.87 -1.91,-1.92 -2.87,-4.22 -2.87,-6.93l0 -28.9c0,-0.88 0.33,-1.65 0.97,-2.31 0.64,-0.62 1.4,-0.93 2.28,-0.93l0.08 0c0.88,0 1.64,0.31 2.28,0.93 0.65,0.66 0.97,1.43 0.97,2.31l0 28.9z"/>
  <path id="_8" class="fil17" d="M967.64 1025.52c0,3.83 -1.35,7.1 -4.08,9.8 -2.72,2.73 -5.99,4.08 -9.82,4.08 -3.82,0 -7.08,-1.35 -9.8,-4.08 -2.72,-2.7 -4.09,-5.97 -4.09,-9.8l0 -24.82c0,-0.88 0.32,-1.65 0.97,-2.31 0.64,-0.62 1.41,-0.93 2.29,-0.93l0.08 0c0.87,0 1.63,0.31 2.28,0.93 0.64,0.66 0.96,1.43 0.96,2.31l0 24.82c0,2.02 0.71,3.75 2.13,5.18 1.43,1.42 3.15,2.12 5.18,2.12 2.04,0 3.77,-0.7 5.2,-2.12 1.42,-1.43 2.13,-3.16 2.13,-5.18l0 -24.82c0,-0.88 0.32,-1.65 0.96,-2.31 0.65,-0.62 1.41,-0.93 2.29,-0.93l0.08 0c0.88,0 1.64,0.31 2.28,0.93 0.64,0.66 0.96,1.43 0.96,2.31l0 24.82z"/>
  <path id="_9" class="fil17" d="M980.14 1014.54l7.38 -0.03c1.47,0 2.72,-0.51 3.73,-1.5 1.02,-1.02 1.54,-2.27 1.54,-3.74 0,-1.44 -0.52,-2.68 -1.54,-3.7 -1.03,-1.04 -2.28,-1.56 -3.73,-1.56l-6.39 0c-0.29,0 -0.53,0.1 -0.73,0.3 -0.17,0.19 -0.26,0.44 -0.26,0.72l0 9.51zm-6.59 -9.51c0,-2.1 0.75,-3.89 2.23,-5.37 1.5,-1.47 3.27,-2.2 5.35,-2.2l6.39 0c3.28,0 6.07,1.15 8.38,3.46 2.31,2.31 3.47,5.09 3.47,8.35 0,3.69 -1.16,6.5 -3.47,8.44 2.72,2.07 4.08,5.16 4.08,9.26 0,3.42 -1.22,6.35 -3.65,8.79 -2.44,2.42 -5.37,3.64 -8.81,3.64l-6.39 0c-2.08,0 -3.85,-0.74 -5.35,-2.22 -1.48,-1.49 -2.23,-3.28 -2.23,-5.35l0 -26.8zm13.97 27.79c1.63,0 3.02,-0.56 4.16,-1.68 1.13,-1.15 1.69,-2.54 1.69,-4.17 0,-1.63 -0.56,-3.02 -1.69,-4.17 -1.14,-1.14 -2.53,-1.71 -4.16,-1.71l-7.38 0 0 10.74c0,0.29 0.09,0.52 0.26,0.73 0.2,0.17 0.44,0.26 0.73,0.26l6.39 0z"/>
  <ellipse class="fil12" cx="532.3" cy="901.25" rx="186.71" ry="20.79"/>
  <path class="fil12 str0" d="M534.09 166.28c93.76,0 169.76,68.91 169.76,153.92 0,3.52 -0.14,7 -0.39,10.45l-8.88 0c-3.9,-27.08 -1.64,-51.61 -23.28,-70.91l-274.43 0c-21.64,19.3 -19.38,43.83 -23.27,70.91l-8.88 0c-0.26,-3.45 -0.4,-6.93 -0.4,-10.45 0,-85.01 76.01,-153.92 169.77,-153.92z"/>
  <path class="fil12" d="M696.5 412.97c-4.36,-2.45 -8.89,-4.81 -13.58,-7.06 -8.8,12.86 -22.65,24.28 -40.16,33.49 -28.38,-14.92 -66.38,-24.06 -108.15,-24.06 -41.78,0 -79.78,9.14 -108.16,24.06 -17.51,-9.21 -31.36,-20.63 -40.16,-33.49 -5.06,2.43 -9.94,4.98 -14.62,7.65 22.57,74.55 86.71,128.33 162.33,128.33 75.81,0 140.09,-54.06 162.5,-128.92z"/>
  <path class="fil18" d="M593.57 455.31c-8.35,15.8 -31.83,27.19 -59.48,27.19 -27.66,0 -51.14,-11.39 -59.49,-27.19l118.97 0z"/>
  <circle class="fil18" cx="470.84" cy="351.07" r="30.26"/>
  <circle class="fil12" cx="470.84" cy="351.07" r="12.05"/>
  <path class="fil12" d="M476 287.24c12.73,0 23.62,7.86 28.09,19 -7.27,-5.63 -17.18,-9.1 -28.09,-9.1 -10.92,0 -20.82,3.47 -28.1,9.1 4.47,-11.13 15.37,-19 28.1,-19z"/>
  <circle class="fil18" cx="597.34" cy="351.07" r="30.26"/>
  <circle class="fil12" cx="597.34" cy="351.07" r="12.05"/>
  <path class="fil12" d="M588.08 298.55c-12.48,2.52 -21.6,12.38 -23.78,24.18 6.02,-6.96 15.04,-12.32 25.74,-14.48 10.7,-2.16 21.1,-0.72 29.34,3.36 -6.58,-10.03 -18.82,-15.58 -31.3,-13.06z"/>
 </g>
</svg>
