<?xml version="1.0" encoding="UTF-8"?>
<!DOCTYPE svg PUBLIC "-//W3C//DTD SVG 1.1//EN" "http://www.w3.org/Graphics/SVG/1.1/DTD/svg11.dtd">
<!-- Creator: CorelDRAW 2021 (64-Bit) -->
<svg xmlns="http://www.w3.org/2000/svg" xml:space="preserve" width="1920px" height="1920px" version="1.1" style="shape-rendering:geometricPrecision; text-rendering:geometricPrecision; image-rendering:optimizeQuality; fill-rule:evenodd; clip-rule:evenodd"
viewBox="0 0 276.26 276.26"
 xmlns:xlink="http://www.w3.org/1999/xlink"
 xmlns:xodm="http://www.corel.com/coreldraw/odm/2003">
 <defs>
  <style type="text/css">
   <![CDATA[
    .str1 {stroke:#003399;stroke-width:0.72;stroke-linecap:round;stroke-linejoin:round;stroke-miterlimit:22.9256}
    .str0 {stroke:black;stroke-width:0.29;stroke-linecap:round;stroke-linejoin:round;stroke-miterlimit:22.9256}
    .str2 {stroke:white;stroke-width:0.86;stroke-linecap:round;stroke-linejoin:round;stroke-miterlimit:22.9256}
    .fil3 {fill:none}
    .fil15 {fill:black}
    .fil0 {fill:#16368B}
    .fil7 {fill:#16368B}
    .fil4 {fill:#333333}
    .fil8 {fill:#A30B24}
    .fil18 {fill:#CFAB92}
    .fil1 {fill:#E6B800}
    .fil19 {fill:#E6BEA2}
    .fil9 {fill:#E6CC05}
    .fil11 {fill:red}
    .fil16 {fill:#FFD3B4}
    .fil21 {fill:#FFDA2C}
    .fil12 {fill:yellow}
    .fil20 {fill:white}
    .fil14 {fill:#003399;fill-rule:nonzero}
    .fil13 {fill:#A30B24;fill-rule:nonzero}
    .fil10 {fill:white;fill-rule:nonzero}
    .fil6 {fill:black;fill-opacity:0.101961}
    .fil5 {fill:white;fill-opacity:0.301961}
    .fil17 {fill:black;fill-opacity:0.501961}
    .fil2 {fill:#E6C850;fill-opacity:0.501961}
   ]]>
  </style>
   <clipPath id="id0">
    <path d="M0 0l276.26 0 0 276.26 -276.26 0 0 -276.26z"/>
   </clipPath>
   <clipPath id="id1">
    <path d="M103.79 148.27l14.18 0c0.12,0.17 0.25,0.33 0.4,0.48l17.43 17.44c1.28,1.27 3.38,1.27 4.65,0l17.44 -17.44c0.15,-0.15 0.28,-0.31 0.4,-0.48l14.18 0c4.86,0 8.55,3.99 8.84,8.84l4.51 75.62 -96.51 0 5.64 -75.62c0.36,-4.85 3.97,-8.84 8.84,-8.84z"/>
   </clipPath>
   <clipPath id="id2">
    <path d="M117.97 148.27l7.05 0 11.54 11.53c0.86,0.87 2.28,0.87 3.14,0l11.54 -11.53 7.05 0c-0.12,0.17 -0.25,0.33 -0.4,0.48l-17.44 17.44c-1.27,1.27 -3.37,1.27 -4.65,0l-17.43 -17.44c-0.15,-0.15 -0.28,-0.31 -0.4,-0.48z"/>
   </clipPath>
   <clipPath id="id3">
    <path d="M247.75 8.41c11.25,0 20.38,9.12 20.38,20.37 0,11.26 -9.13,20.38 -20.38,20.38 -11.25,0 -20.37,-9.12 -20.37,-20.38 0,-11.25 9.12,-20.37 20.37,-20.37z"/>
   </clipPath>
   <clipPath id="id4">
    <path d="M138.15 43.22c22.48,0 41.04,18.36 43.86,42.14 5.16,0.71 9.14,5.14 9.14,10.5 0,5.85 -4.75,10.6 -10.61,10.6 -0.09,0 -0.18,0 -0.27,0 -4.99,17.01 -18.33,29.92 -34.73,32.94l0 8.88 5.73 0 -11.54 11.54c-0.87,0.87 -2.28,0.87 -3.15,0l-11.54 -11.54 5.73 0 0 -8.88c-16.41,-3.02 -29.75,-15.93 -34.73,-32.94l-0.28 0c-5.85,0 -10.6,-4.75 -10.6,-10.6 0,-5.36 3.98,-9.79 9.14,-10.5 2.81,-23.78 21.37,-42.14 43.85,-42.14z"/>
   </clipPath>
   <clipPath id="id5">
    <path d="M124.84 119.12c2.51,17.75 23.94,16.09 26.28,0 -8.76,0 -17.52,0 -26.28,0z"/>
   </clipPath>
 </defs>
 <g id="Capa_x0020_1">
  <metadata id="CorelCorpID_0Corel-Layer"/>
  <polygon class="fil0" points="0,0 276.26,0 276.26,276.26 0,276.26 "/>
  <g style="clip-path:url(#id0)">
   <g id="_3076686727296">
    <rect class="fil1 str0" x="-16.52" y="-12.27" width="307.01" height="298.99"/>
    <path class="fil2" d="M242.88 237.83c12.86,-56.75 -8.41,-130.37 -74.4,-132.76 64.36,27.03 61.91,105.86 28.68,158.7 29.77,-50 32.29,-126.59 -29.73,-149.25 52.85,45.59 26.17,119.81 -21.76,159.8 43.76,-38.36 69.82,-110.42 17.84,-151.14 36.18,59.69 -12.14,122.03 -70.08,145.25 53.47,-22.96 100.53,-83.44 63.67,-138.23 15.97,67.95 -49.25,112.31 -111.53,116.49 57.95,-5.31 121.4,-48.28 103.27,-111.78 -5.82,69.55 -81.55,91.59 -142.07,76.32 56.75,12.85 130.37,-8.41 132.76,-74.41 -27.03,64.36 -105.86,61.91 -158.7,28.69 50,29.76 126.59,32.29 149.25,-29.74 -45.59,52.85 -119.81,26.17 -159.79,-21.76 38.35,43.76 110.41,69.83 151.13,17.84 -59.69,36.18 -122.03,-12.14 -145.25,-70.08 22.96,53.48 83.44,100.54 138.23,63.68 -67.95,15.96 -112.31,-49.26 -116.49,-111.54 5.31,57.95 48.29,121.4 111.79,103.28 -69.56,-5.82 -91.6,-81.55 -76.32,-142.08 -12.86,56.76 8.41,130.38 74.4,132.76 -64.36,-27.02 -61.91,-105.86 -28.69,-158.7 -29.76,50 -32.29,126.59 29.74,149.26 -52.85,-45.6 -26.17,-119.82 21.76,-159.8 -43.76,38.35 -69.83,110.42 -17.84,151.14 -36.18,-59.7 12.14,-122.04 70.08,-145.26 -53.47,22.96 -100.54,83.44 -63.68,138.23 -15.96,-67.95 49.26,-112.31 111.54,-116.49 -57.95,5.31 -121.4,48.29 -103.27,111.79 5.82,-69.56 81.55,-91.59 142.07,-76.32 -56.75,-12.86 -130.38,8.41 -132.76,74.4 27.03,-64.36 105.86,-61.91 158.7,-28.68 -50,-29.77 -126.59,-32.29 -149.26,29.73 45.6,-52.85 119.82,-26.17 159.8,21.76 -38.35,-43.76 -110.42,-69.82 -151.13,-17.84 59.69,-36.17 122.03,12.14 145.25,70.08 -22.96,-53.47 -83.44,-100.53 -138.23,-63.67 67.95,-15.96 112.31,49.25 116.49,111.53 -5.31,-57.95 -48.29,-121.39 -111.79,-103.27 69.56,5.82 91.6,81.55 76.32,142.07z"/>
   </g>
  </g>
  <polygon class="fil3" points="0,0 276.26,0 276.26,276.26 0,276.26 "/>
  <path class="fil3 str1" d="M16.03 8.34l235.39 0c4.13,0 16.31,11.38 16.31,15.51l0 221.18c0,4.13 -3.37,7.51 -7.5,7.51l-244.2 0c-4.13,0 -7.51,-3.38 -7.51,-7.51l0 -229.18c0,-4.13 3.38,-7.51 7.51,-7.51z"/>
  <path class="fil4" d="M103.79 148.27l14.18 0c0.12,0.17 0.25,0.33 0.4,0.48l17.43 17.44c1.28,1.27 3.38,1.27 4.65,0l17.44 -17.44c0.15,-0.15 0.28,-0.31 0.4,-0.48l14.18 0c4.86,0 8.55,3.99 8.84,8.84l4.51 75.62 -96.51 0 5.64 -75.62c0.36,-4.85 3.97,-8.84 8.84,-8.84z"/>
  <g style="clip-path:url(#id1)">
   <g id="_3076686724608">
    <g>
     <path id="_1" class="fil5" d="M67.66 130.06l70.47 0 0 19.77 -29.46 0c-4,0 -7.26,3.27 -7.26,7.26l0 105.13c0,0.73 0.1,1.43 0.31,2.1l-34.06 0 0 -134.26z"/>
     <path class="fil6" d="M208.59 130.06l-70.46 0 0 19.77 29.96 0c3.99,0 7.26,3.27 7.26,7.26l0 63.98c-38.81,4.5 -76.05,2.24 -111.79,-6.44 0,17.21 0,34.41 0,51.62 49.88,0 99.76,0 149.63,0 0,-17.21 0,-34.41 0,-51.62 -1.53,0.34 -3.07,0.68 -4.6,1l0 -85.57z"/>
    </g>
    <rect class="fil7" x="70.36" y="133.13" width="27.11" height="111.19"/>
    <rect class="fil8" x="97.47" y="133.13" width="27.11" height="111.19"/>
    <rect class="fil7" x="124.58" y="133.13" width="27.11" height="111.19"/>
    <rect class="fil8" x="151.68" y="133.13" width="27.11" height="111.19"/>
    <rect class="fil7" x="178.79" y="133.13" width="27.11" height="111.19"/>
   </g>
  </g>
  <path class="fil3" d="M103.79 148.27l14.18 0c0.12,0.17 0.25,0.33 0.4,0.48l17.43 17.44c1.28,1.27 3.38,1.27 4.65,0l17.44 -17.44c0.15,-0.15 0.28,-0.31 0.4,-0.48l14.18 0c4.86,0 8.55,3.99 8.84,8.84l4.51 75.62 -96.51 0 5.64 -75.62c0.36,-4.85 3.97,-8.84 8.84,-8.84z"/>
  <path class="fil9" d="M117.97 148.27l7.05 0 11.54 11.53c0.86,0.87 2.28,0.87 3.14,0l11.54 -11.53 7.05 0c-0.12,0.17 -0.25,0.33 -0.4,0.48l-17.44 17.44c-1.27,1.27 -3.37,1.27 -4.65,0l-17.43 -17.44c-0.15,-0.15 -0.28,-0.31 -0.4,-0.48z"/>
  <g style="clip-path:url(#id2)">
  </g>
  <path id="_1_0" class="fil3" d="M117.97 148.27l7.05 0 11.54 11.53c0.86,0.87 2.28,0.87 3.14,0l11.54 -11.53 7.05 0c-0.12,0.17 -0.25,0.33 -0.4,0.48l-17.44 17.44c-1.27,1.27 -3.37,1.27 -4.65,0l-17.43 -17.44c-0.15,-0.15 -0.28,-0.31 -0.4,-0.48z"/>
  <path class="fil10" d="M130.56 202.09c0.72,0.68 1.54,1.19 2.45,1.52 0.91,0.33 1.94,0.49 3.09,0.49 1.85,0 3.32,-0.44 4.4,-1.33 1.08,-0.9 1.62,-2.1 1.62,-3.61 0,-1.64 -0.51,-2.86 -1.51,-3.66 -1.01,-0.8 -2.54,-1.21 -4.59,-1.21l-0.79 0 0 -3.03 0.4 0c2.1,0 3.64,-0.33 4.63,-0.99 0.99,-0.67 1.49,-1.69 1.49,-3.08 0,-1.29 -0.46,-2.32 -1.38,-3.11 -0.92,-0.78 -2.16,-1.18 -3.7,-1.18 -0.89,0 -1.71,0.13 -2.48,0.38 -0.75,0.25 -1.48,0.64 -2.16,1.17 0.79,0.08 1.41,0.36 1.86,0.84 0.44,0.48 0.66,1.11 0.66,1.9 0,0.86 -0.3,1.56 -0.91,2.12 -0.61,0.55 -1.4,0.83 -2.37,0.83 -0.99,0 -1.8,-0.32 -2.44,-0.96 -0.65,-0.64 -0.97,-1.45 -0.97,-2.46 0,-1.81 0.95,-3.34 2.84,-4.6 1.9,-1.25 4.3,-1.88 7.23,-1.88 2.95,0 5.32,0.6 7.11,1.79 1.8,1.19 2.69,2.74 2.69,4.65 0,1.59 -0.51,2.88 -1.53,3.85 -1.03,0.98 -2.59,1.67 -4.7,2.09 2.26,0.4 3.98,1.15 5.16,2.28 1.19,1.12 1.78,2.55 1.78,4.3 0,2.35 -1.03,4.24 -3.11,5.65 -2.07,1.42 -4.85,2.12 -8.36,2.12 -2.94,0 -5.34,-0.66 -7.21,-1.99 -1.88,-1.34 -2.81,-3.01 -2.81,-5.03 0,-1.2 0.35,-2.18 1.06,-2.92 0.71,-0.74 1.64,-1.11 2.78,-1.11 0.96,0 1.73,0.29 2.33,0.87 0.6,0.58 0.89,1.34 0.89,2.28 0,0.91 -0.29,1.64 -0.86,2.19 -0.58,0.56 -1.33,0.83 -2.28,0.83l-0.31 0z"/>
  <circle class="fil1" cx="247.75" cy="28.78" r="24.72"/>
  <g>
  </g>
  <g style="clip-path:url(#id3)">
   <g>
    <rect class="fil11" x="220.66" y="8.43" width="61.47" height="13.53"/>
    <rect class="fil12" x="220.66" y="21.96" width="61.47" height="13.53"/>
    <rect class="fil11" x="220.66" y="35.5" width="61.47" height="13.53"/>
   </g>
  </g>
  <path class="fil3 str2" d="M247.75 8.41c11.25,0 20.38,9.12 20.38,20.37 0,11.26 -9.13,20.38 -20.38,20.38 -11.25,0 -20.37,-9.12 -20.37,-20.38 0,-11.25 9.12,-20.37 20.37,-20.37z"/>
  <path class="fil13" d="M49.79 264.3l0.19 -0.96 -0.71 0c-0.12,0 -0.23,-0.04 -0.32,-0.13 -0.09,-0.09 -0.13,-0.2 -0.13,-0.32l0 -0.01c0,-0.12 0.04,-0.23 0.13,-0.32 0.09,-0.09 0.2,-0.13 0.32,-0.13l0.9 0 0.2 -1.01c0.03,-0.12 0.09,-0.21 0.2,-0.28 0.08,-0.05 0.16,-0.08 0.25,-0.08 0.03,0 0.07,0.01 0.1,0.01l0.01 0.01c0.11,0.02 0.2,0.08 0.27,0.18 0.05,0.08 0.08,0.16 0.08,0.25 0,0.03 -0.01,0.06 -0.01,0.1l-0.16 0.82 0.92 0 0.2 -1.01c0.03,-0.12 0.09,-0.21 0.2,-0.28 0.08,-0.05 0.16,-0.08 0.24,-0.08 0.04,0 0.07,0.01 0.1,0.01l0.01 0.01c0.12,0.02 0.21,0.08 0.28,0.18 0.05,0.08 0.08,0.16 0.08,0.25 0,0.03 -0.01,0.06 -0.01,0.1l-0.17 0.82 0.73 0c0.13,0 0.23,0.04 0.32,0.13 0.09,0.09 0.13,0.2 0.13,0.32l0 0.01c0,0.12 -0.04,0.23 -0.13,0.32 -0.09,0.09 -0.19,0.13 -0.32,0.13l-0.91 0 -0.19 0.96 0.77 0c0.13,0 0.24,0.04 0.32,0.13 0.09,0.09 0.14,0.2 0.14,0.32l0 0.01c0,0.12 -0.05,0.23 -0.14,0.32 -0.08,0.09 -0.19,0.13 -0.32,0.13l-0.95 0 -0.23 1.09c-0.02,0.12 -0.08,0.21 -0.19,0.28 -0.07,0.05 -0.16,0.07 -0.24,0.07 -0.04,0 -0.07,0 -0.1,0l-0.01 -0.01c-0.12,-0.02 -0.21,-0.08 -0.28,-0.19 -0.05,-0.07 -0.08,-0.15 -0.08,-0.24 0,-0.03 0,-0.07 0.01,-0.1l0.18 -0.9 -0.92 0 -0.23 1.09c-0.02,0.12 -0.08,0.21 -0.19,0.28 -0.07,0.05 -0.16,0.07 -0.25,0.07 -0.03,0 -0.07,0 -0.1,0l-0.01 -0.01c-0.11,-0.02 -0.2,-0.08 -0.27,-0.19 -0.05,-0.07 -0.08,-0.15 -0.08,-0.24 0,-0.03 0.01,-0.07 0.01,-0.1l0.18 -0.9 -0.66 0c-0.13,0 -0.24,-0.04 -0.33,-0.13 -0.08,-0.09 -0.13,-0.2 -0.13,-0.32l0 -0.01c0,-0.12 0.05,-0.23 0.13,-0.32 0.09,-0.09 0.2,-0.13 0.33,-0.13l0.84 0zm1.13 -0.96l-0.19 0.96 0.92 0 0.19 -0.96 -0.92 0z"/>
  <path id="_1_1" class="fil13" d="M56.81 260.61c0.6,0 1.12,0.21 1.55,0.64 0.43,0.43 0.64,0.95 0.64,1.55l0 2c0,0.6 -0.21,1.12 -0.64,1.55 -0.43,0.43 -0.95,0.64 -1.55,0.64 -0.6,0 -1.12,-0.21 -1.55,-0.64 -0.43,-0.43 -0.65,-0.95 -0.65,-1.55l0 -2c0,-0.6 0.22,-1.12 0.65,-1.55 0.43,-0.43 0.95,-0.64 1.55,-0.64zm0 1.02c-0.33,0 -0.61,0.11 -0.85,0.35 -0.23,0.23 -0.35,0.52 -0.35,0.85l0 1.94c0,0.33 0.12,0.61 0.35,0.85 0.24,0.23 0.52,0.35 0.85,0.35 0.33,0 0.61,-0.12 0.84,-0.35 0.24,-0.24 0.35,-0.52 0.35,-0.85l0 -1.94c0,-0.33 -0.11,-0.62 -0.35,-0.85 -0.23,-0.24 -0.51,-0.35 -0.84,-0.35z"/>
  <path id="_2" class="fil13" d="M62.02 260.61c0.6,0 1.12,0.21 1.55,0.64 0.43,0.43 0.65,0.95 0.65,1.55l0 2c0,0.6 -0.22,1.12 -0.65,1.55 -0.43,0.43 -0.95,0.64 -1.55,0.64 -0.6,0 -1.12,-0.21 -1.55,-0.64 -0.43,-0.43 -0.65,-0.95 -0.65,-1.55l0 -2c0,-0.6 0.22,-1.12 0.65,-1.55 0.43,-0.43 0.95,-0.64 1.55,-0.64zm0 1.02c-0.33,0 -0.61,0.11 -0.85,0.35 -0.23,0.23 -0.35,0.52 -0.35,0.85l0 1.94c0,0.33 0.12,0.61 0.35,0.85 0.24,0.23 0.52,0.35 0.85,0.35 0.33,0 0.61,-0.12 0.84,-0.35 0.24,-0.24 0.35,-0.52 0.35,-0.85l0 -1.94c0,-0.33 -0.11,-0.62 -0.35,-0.85 -0.23,-0.24 -0.51,-0.35 -0.84,-0.35z"/>
  <path id="_3" class="fil13" d="M67.37 260.61c0.5,0 0.93,0.18 1.28,0.53 0.35,0.35 0.53,0.77 0.53,1.27 0,0.43 -0.18,0.83 -0.53,1.18 -0.2,0.22 -0.57,0.48 -1.09,0.81 -0.51,0.32 -0.86,0.57 -1.05,0.75 -0.3,0.29 -0.45,0.58 -0.45,0.84l2.66 0c0.14,0 0.26,0.05 0.35,0.15 0.1,0.1 0.15,0.22 0.15,0.35l0 0.01c0,0.14 -0.05,0.25 -0.15,0.35 -0.09,0.1 -0.21,0.14 -0.35,0.14l-3.19 0c-0.14,0 -0.25,-0.04 -0.35,-0.14 -0.1,-0.1 -0.15,-0.21 -0.15,-0.35l0 -0.38c0,-0.51 0.18,-0.96 0.52,-1.37 0.24,-0.27 0.61,-0.57 1.11,-0.89 0.61,-0.39 0.96,-0.63 1.07,-0.72 0.3,-0.24 0.45,-0.49 0.45,-0.73 0,-0.22 -0.08,-0.41 -0.24,-0.57 -0.16,-0.15 -0.34,-0.23 -0.57,-0.23l-1.64 0c-0.14,0 -0.25,-0.05 -0.35,-0.15 -0.1,-0.09 -0.15,-0.21 -0.15,-0.35l0 -0.01c0,-0.13 0.05,-0.25 0.15,-0.35 0.1,-0.09 0.21,-0.14 0.35,-0.14l1.64 0z"/>
  <path id="_4" class="fil13" d="M70.61 264.21c-0.13,0 -0.25,-0.05 -0.35,-0.15 -0.09,-0.09 -0.14,-0.21 -0.14,-0.35l0 -2.61c0,-0.13 0.05,-0.25 0.14,-0.35 0.1,-0.09 0.22,-0.14 0.35,-0.14l2.49 0c0.14,0 0.25,0.05 0.35,0.14 0.1,0.1 0.15,0.22 0.15,0.35l0 0.01c0,0.14 -0.05,0.26 -0.15,0.35 -0.1,0.1 -0.21,0.15 -0.35,0.15l-1.98 0 0 1.6 1.12 0c0.53,0 0.97,0.18 1.34,0.55 0.37,0.37 0.56,0.82 0.56,1.34 0,0.52 -0.19,0.97 -0.56,1.34 -0.37,0.37 -0.81,0.55 -1.34,0.55l-1.63 0c-0.13,0 -0.25,-0.04 -0.35,-0.14 -0.09,-0.1 -0.14,-0.21 -0.14,-0.35l0 -0.01c0,-0.13 0.05,-0.25 0.14,-0.35 0.1,-0.1 0.22,-0.15 0.35,-0.15l1.63 0c0.25,0 0.46,-0.08 0.64,-0.25 0.17,-0.18 0.25,-0.39 0.25,-0.64 0,-0.25 -0.08,-0.46 -0.25,-0.63 -0.18,-0.18 -0.39,-0.26 -0.64,-0.26l-1.63 0z"/>
  <path class="fil14" d="M19.62 262.36l2.9 0c0.22,0 0.42,0.08 0.59,0.24 0.17,0.17 0.25,0.37 0.25,0.6l0 0.01c0,0.24 -0.08,0.43 -0.25,0.59 -0.17,0.17 -0.37,0.25 -0.59,0.25l-2.9 0 0 3.74c0,0.23 -0.08,0.43 -0.24,0.59 -0.17,0.16 -0.37,0.24 -0.59,0.24l-0.02 0c-0.23,0 -0.43,-0.08 -0.59,-0.24 -0.17,-0.16 -0.26,-0.36 -0.26,-0.59l0 -7.47c0,-0.7 0.25,-1.3 0.75,-1.79 0.49,-0.5 1.09,-0.74 1.79,-0.74l2.13 0c0.23,0 0.42,0.08 0.59,0.24 0.16,0.16 0.25,0.36 0.25,0.59l0 0.02c0,0.23 -0.09,0.43 -0.25,0.59 -0.17,0.17 -0.36,0.25 -0.59,0.25l-2.13 0c-0.23,0 -0.43,0.08 -0.59,0.24 -0.16,0.16 -0.25,0.36 -0.25,0.6l0 2.04z"/>
  <path id="_1_2" class="fil14" d="M29.58 257.79c0.45,0 0.9,0.05 1.34,0.16 0.43,0.11 0.64,0.38 0.64,0.81l0 0.02c0,0.28 -0.11,0.5 -0.33,0.67 -0.15,0.12 -0.31,0.17 -0.49,0.17 -0.07,0 -0.15,-0.01 -0.23,-0.03 -0.31,-0.07 -0.62,-0.11 -0.93,-0.11 -1.03,0 -1.91,0.36 -2.64,1.09 -0.72,0.72 -1.08,1.6 -1.08,2.64 0,1.03 0.36,1.91 1.08,2.63 0.73,0.72 1.61,1.08 2.64,1.08 0.31,0 0.62,-0.03 0.93,-0.11 0.08,-0.01 0.16,-0.02 0.23,-0.02 0.18,0 0.34,0.05 0.49,0.17 0.22,0.17 0.33,0.39 0.33,0.67l0 0.01c0,0.44 -0.21,0.71 -0.64,0.82 -0.44,0.11 -0.89,0.16 -1.34,0.16 -1.5,0 -2.77,-0.53 -3.83,-1.58 -1.07,-1.06 -1.59,-2.34 -1.59,-3.83 0,-1.5 0.52,-2.78 1.59,-3.84 1.06,-1.06 2.33,-1.58 3.83,-1.58z"/>
  <path id="_2_3" class="fil14" d="M34.44 262.2l1.91 -0.01c0.38,0 0.7,-0.13 0.96,-0.39 0.27,-0.26 0.4,-0.58 0.4,-0.96 0,-0.38 -0.13,-0.7 -0.4,-0.96 -0.26,-0.27 -0.59,-0.4 -0.96,-0.4l-1.65 0c-0.08,0 -0.14,0.02 -0.19,0.07 -0.05,0.05 -0.07,0.12 -0.07,0.19l0 2.46zm-1.7 -2.46c0,-0.54 0.19,-1 0.57,-1.39 0.39,-0.38 0.85,-0.56 1.39,-0.56l1.65 0c0.84,0 1.57,0.29 2.16,0.89 0.6,0.6 0.9,1.32 0.9,2.16 0,0.95 -0.3,1.68 -0.9,2.18 0.71,0.53 1.06,1.33 1.06,2.39 0,0.89 -0.32,1.64 -0.94,2.27 -0.63,0.63 -1.39,0.94 -2.28,0.94l-1.65 0c-0.54,0 -1,-0.19 -1.39,-0.57 -0.38,-0.38 -0.57,-0.85 -0.57,-1.38l0 -6.93zm3.61 7.18c0.42,0 0.78,-0.14 1.07,-0.43 0.3,-0.3 0.44,-0.66 0.44,-1.08 0,-0.42 -0.14,-0.78 -0.44,-1.08 -0.29,-0.29 -0.65,-0.44 -1.07,-0.44l-1.91 0 0 2.78c0,0.07 0.02,0.13 0.07,0.19 0.05,0.04 0.11,0.06 0.19,0.06l1.65 0z"/>
  <path class="fil14" d="M175.92 266.09c0,0.23 0.08,0.43 0.24,0.59 0.16,0.16 0.36,0.24 0.59,0.24l2.02 0c0.23,0 0.43,0.09 0.6,0.26 0.17,0.16 0.25,0.36 0.25,0.59l0 0.02c0,0.23 -0.08,0.43 -0.25,0.59 -0.17,0.16 -0.37,0.24 -0.6,0.24l-2.02 0c-0.7,0 -1.29,-0.24 -1.79,-0.74 -0.49,-0.49 -0.74,-1.09 -0.74,-1.79l0 -7.47c0,-0.23 0.08,-0.43 0.25,-0.59 0.16,-0.16 0.36,-0.24 0.59,-0.24l0.02 0c0.23,0 0.42,0.08 0.59,0.24 0.17,0.16 0.25,0.36 0.25,0.59l0 7.47z"/>
  <path id="_1_4" class="fil14" d="M187.63 267.79c0,0.23 -0.08,0.43 -0.25,0.59 -0.16,0.16 -0.36,0.24 -0.59,0.24l-0.02 0c-0.22,0 -0.42,-0.08 -0.59,-0.24 -0.16,-0.16 -0.25,-0.36 -0.25,-0.59l0 -3.1 -3.78 0 0 3.1c0,0.23 -0.08,0.43 -0.25,0.59 -0.17,0.16 -0.36,0.24 -0.59,0.24l-0.02 0c-0.23,0 -0.42,-0.08 -0.59,-0.24 -0.17,-0.16 -0.25,-0.36 -0.25,-0.59l0 -6.42c0,-0.99 0.35,-1.83 1.06,-2.54 0.7,-0.7 1.54,-1.04 2.53,-1.04 0.99,0 1.84,0.34 2.54,1.04 0.7,0.71 1.05,1.55 1.05,2.54l0 6.42zm-1.7 -4.79l0 -1.63c0,-0.52 -0.18,-0.97 -0.55,-1.34 -0.36,-0.37 -0.81,-0.55 -1.34,-0.55 -0.52,0 -0.97,0.18 -1.34,0.55 -0.37,0.37 -0.55,0.82 -0.55,1.34l0 1.63 3.78 0z"/>
  <path id="_2_5" class="fil14" d="M195.17 266.09c0,0.23 0.08,0.43 0.24,0.59 0.17,0.16 0.36,0.24 0.59,0.24l2.02 0c0.23,0 0.43,0.09 0.6,0.26 0.17,0.16 0.25,0.36 0.25,0.59l0 0.02c0,0.23 -0.08,0.43 -0.25,0.59 -0.17,0.16 -0.37,0.24 -0.6,0.24l-2.02 0c-0.69,0 -1.29,-0.24 -1.79,-0.74 -0.49,-0.49 -0.74,-1.09 -0.74,-1.79l0 -7.47c0,-0.23 0.08,-0.43 0.25,-0.59 0.17,-0.16 0.36,-0.24 0.59,-0.24l0.02 0c0.23,0 0.43,0.08 0.59,0.24 0.17,0.16 0.25,0.36 0.25,0.59l0 7.47z"/>
  <path id="_3_6" class="fil14" d="M200.77 257.79c0.23,0 0.42,0.08 0.59,0.24 0.17,0.16 0.25,0.36 0.25,0.59l0 9.17c0,0.23 -0.08,0.43 -0.25,0.59 -0.17,0.16 -0.36,0.24 -0.59,0.24l-0.02 0c-0.23,0 -0.42,-0.08 -0.59,-0.24 -0.17,-0.16 -0.25,-0.36 -0.25,-0.59l0 -9.17c0,-0.23 0.08,-0.43 0.25,-0.59 0.17,-0.16 0.36,-0.24 0.59,-0.24l0.02 0z"/>
  <path id="_4_7" class="fil14" d="M208.56 257.79c1.58,0 2.92,0.58 3.99,1.74 0.15,0.17 0.23,0.36 0.23,0.57 0,0.03 0,0.07 -0.01,0.09 -0.03,0.26 -0.15,0.45 -0.34,0.58l-0.01 0.02c-0.16,0.11 -0.32,0.17 -0.49,0.17 -0.03,0 -0.06,-0.01 -0.1,-0.01 -0.21,-0.02 -0.38,-0.11 -0.53,-0.27 -0.74,-0.8 -1.65,-1.2 -2.74,-1.2 -1.03,0 -1.9,0.36 -2.63,1.09 -0.73,0.72 -1.09,1.6 -1.09,2.64 0,1.03 0.36,1.91 1.09,2.63 0.73,0.72 1.6,1.08 2.63,1.08 0.92,0 1.73,-0.29 2.42,-0.89 0.69,-0.59 1.1,-1.25 1.22,-1.98l-3.47 0c-0.23,0 -0.43,-0.08 -0.59,-0.25 -0.17,-0.16 -0.25,-0.36 -0.25,-0.59l0 -0.01c0,-0.23 0.08,-0.43 0.25,-0.6 0.16,-0.16 0.36,-0.24 0.59,-0.24l4.41 0c0.23,0 0.43,0.08 0.6,0.24 0.16,0.17 0.24,0.37 0.25,0.6l0 0.01c0,1.49 -0.53,2.77 -1.59,3.83 -1.07,1.05 -2.35,1.58 -3.84,1.58 -1.5,0 -2.77,-0.53 -3.83,-1.58 -1.06,-1.06 -1.59,-2.34 -1.59,-3.83 0,-1.5 0.53,-2.78 1.59,-3.84 1.06,-1.06 2.33,-1.58 3.83,-1.58z"/>
  <path id="_5" class="fil14" d="M222.49 267.79c0,0.23 -0.09,0.43 -0.25,0.59 -0.17,0.16 -0.36,0.24 -0.59,0.24l-0.02 0c-0.23,0 -0.43,-0.08 -0.59,-0.24 -0.17,-0.16 -0.25,-0.36 -0.25,-0.59l0 -3.1 -3.79 0 0 3.1c0,0.23 -0.08,0.43 -0.24,0.59 -0.17,0.16 -0.37,0.24 -0.59,0.24l-0.03 0c-0.22,0 -0.42,-0.08 -0.59,-0.24 -0.16,-0.16 -0.25,-0.36 -0.25,-0.59l0 -6.42c0,-0.99 0.36,-1.83 1.06,-2.54 0.7,-0.7 1.55,-1.04 2.53,-1.04 0.99,0 1.84,0.34 2.54,1.04 0.71,0.71 1.06,1.55 1.06,2.54l0 6.42zm-1.7 -4.79l0 -1.63c0,-0.52 -0.18,-0.97 -0.55,-1.34 -0.37,-0.37 -0.82,-0.55 -1.35,-0.55 -0.52,0 -0.97,0.18 -1.34,0.55 -0.36,0.37 -0.55,0.82 -0.55,1.34l0 1.63 3.79 0z"/>
  <path id="_6" class="fil14" d="M233.43 257.79c0.46,0 0.91,0.05 1.35,0.16 0.42,0.11 0.64,0.38 0.64,0.81l0 0.02c0,0.28 -0.11,0.5 -0.34,0.67 -0.14,0.12 -0.31,0.17 -0.48,0.17 -0.08,0 -0.15,-0.01 -0.23,-0.03 -0.31,-0.07 -0.62,-0.11 -0.94,-0.11 -1.03,0 -1.9,0.36 -2.63,1.09 -0.72,0.72 -1.09,1.6 -1.09,2.64 0,1.03 0.37,1.91 1.09,2.63 0.73,0.72 1.6,1.08 2.63,1.08 0.32,0 0.63,-0.03 0.94,-0.11 0.08,-0.01 0.15,-0.02 0.23,-0.02 0.17,0 0.34,0.05 0.48,0.17 0.23,0.17 0.34,0.39 0.34,0.67l0 0.01c0,0.44 -0.22,0.71 -0.64,0.82 -0.44,0.11 -0.89,0.16 -1.35,0.16 -1.49,0 -2.77,-0.53 -3.83,-1.58 -1.06,-1.06 -1.59,-2.34 -1.59,-3.83 0,-1.5 0.53,-2.78 1.59,-3.84 1.06,-1.06 2.34,-1.58 3.83,-1.58z"/>
  <path id="_7" class="fil14" d="M238.36 266.09c0,0.23 0.09,0.43 0.25,0.59 0.16,0.16 0.36,0.24 0.59,0.24l2.02 0c0.23,0 0.43,0.09 0.59,0.26 0.17,0.16 0.25,0.36 0.25,0.59l0 0.02c0,0.23 -0.08,0.43 -0.25,0.59 -0.16,0.16 -0.36,0.24 -0.59,0.24l-2.02 0c-0.7,0 -1.3,-0.24 -1.79,-0.74 -0.5,-0.49 -0.74,-1.09 -0.74,-1.79l0 -7.47c0,-0.23 0.08,-0.43 0.25,-0.59 0.16,-0.16 0.36,-0.24 0.58,-0.24l0.03 0c0.22,0 0.42,0.08 0.59,0.24 0.16,0.16 0.24,0.36 0.24,0.59l0 7.47z"/>
  <path id="_8" class="fil14" d="M250.08 265.04c0,0.99 -0.35,1.83 -1.06,2.53 -0.7,0.7 -1.54,1.05 -2.53,1.05 -0.99,0 -1.83,-0.35 -2.54,-1.05 -0.7,-0.7 -1.05,-1.54 -1.05,-2.53l0 -6.42c0,-0.23 0.08,-0.43 0.25,-0.59 0.16,-0.16 0.36,-0.24 0.59,-0.24l0.02 0c0.22,0 0.42,0.08 0.59,0.24 0.16,0.16 0.25,0.36 0.25,0.59l0 6.42c0,0.52 0.18,0.97 0.55,1.34 0.37,0.36 0.81,0.54 1.34,0.54 0.52,0 0.97,-0.18 1.34,-0.54 0.37,-0.37 0.55,-0.82 0.55,-1.34l0 -6.42c0,-0.23 0.08,-0.43 0.25,-0.59 0.17,-0.16 0.36,-0.24 0.59,-0.24l0.02 0c0.23,0 0.42,0.08 0.59,0.24 0.17,0.16 0.25,0.36 0.25,0.59l0 6.42z"/>
  <path id="_9" class="fil14" d="M253.31 262.2l1.91 -0.01c0.38,0 0.7,-0.13 0.96,-0.39 0.26,-0.26 0.4,-0.58 0.4,-0.96 0,-0.38 -0.14,-0.7 -0.4,-0.96 -0.27,-0.27 -0.59,-0.4 -0.96,-0.4l-1.66 0c-0.07,0 -0.13,0.02 -0.18,0.07 -0.05,0.05 -0.07,0.12 -0.07,0.19l0 2.46zm-1.7 -2.46c0,-0.54 0.19,-1 0.57,-1.39 0.39,-0.38 0.85,-0.56 1.38,-0.56l1.66 0c0.84,0 1.57,0.29 2.16,0.89 0.6,0.6 0.9,1.32 0.9,2.16 0,0.95 -0.3,1.68 -0.9,2.18 0.71,0.53 1.06,1.33 1.06,2.39 0,0.89 -0.32,1.64 -0.95,2.27 -0.63,0.63 -1.38,0.94 -2.27,0.94l-1.66 0c-0.53,0 -0.99,-0.19 -1.38,-0.57 -0.38,-0.38 -0.57,-0.85 -0.57,-1.38l0 -6.93zm3.61 7.18c0.42,0 0.78,-0.14 1.07,-0.43 0.29,-0.3 0.44,-0.66 0.44,-1.08 0,-0.42 -0.15,-0.78 -0.44,-1.08 -0.29,-0.29 -0.65,-0.44 -1.07,-0.44l-1.91 0 0 2.78c0,0.07 0.02,0.13 0.07,0.19 0.05,0.04 0.11,0.06 0.18,0.06l1.66 0z"/>
  <ellipse class="fil15" cx="137.57" cy="232.92" rx="48.25" ry="5.37"/>
  <path class="fil16" d="M138.15 43.22c22.48,0 41.04,18.36 43.86,42.14 5.16,0.71 9.14,5.14 9.14,10.5 0,5.85 -4.75,10.6 -10.61,10.6 -0.09,0 -0.18,0 -0.27,0 -4.99,17.01 -18.33,29.92 -34.73,32.94l0 8.88 5.73 0 -11.54 11.54c-0.87,0.87 -2.28,0.87 -3.15,0l-11.54 -11.54 5.73 0 0 -8.88c-16.41,-3.02 -29.75,-15.93 -34.73,-32.94l-0.28 0c-5.85,0 -10.6,-4.75 -10.6,-10.6 0,-5.36 3.98,-9.79 9.14,-10.5 2.81,-23.78 21.37,-42.14 43.85,-42.14z"/>
  <g style="clip-path:url(#id4)">
   <g>
    <path id="_1_8" class="fil17" d="M164.16 130.6c-1.31,8.03 -12.65,14.31 -26.45,14.31 -13.8,0 -25.15,-6.28 -26.46,-14.31 7.4,5.93 16.55,9.43 26.46,9.43 9.9,0 19.05,-3.5 26.45,-9.43z"/>
   </g>
  </g>
  <path class="fil3" d="M138.15 43.22c22.48,0 41.04,18.36 43.86,42.14 5.16,0.71 9.14,5.14 9.14,10.5 0,5.85 -4.75,10.6 -10.61,10.6 -0.09,0 -0.18,0 -0.27,0 -4.99,17.01 -18.33,29.92 -34.73,32.94l0 8.88 5.73 0 -11.54 11.54c-0.87,0.87 -2.28,0.87 -3.15,0l-11.54 -11.54 5.73 0 0 -8.88c-16.41,-3.02 -29.75,-15.93 -34.73,-32.94l-0.28 0c-5.85,0 -10.6,-4.75 -10.6,-10.6 0,-5.36 3.98,-9.79 9.14,-10.5 2.81,-23.78 21.37,-42.14 43.85,-42.14z"/>
  <path class="fil18" d="M180.25 88.7c-0.78,0 -1.52,0.12 -2.22,0.36 0.15,-0.01 0.3,-0.02 0.45,-0.02 3.68,0 6.67,2.99 6.67,6.67 0,3.68 -2.99,6.67 -6.67,6.67 -0.15,0 -0.3,-0.01 -0.45,-0.02 0.7,0.23 1.44,0.36 2.22,0.36 3.87,0 7.01,-3.14 7.01,-7.01 0,-3.87 -3.14,-7.01 -7.01,-7.01zm-84.19 0c0.77,0 1.52,0.12 2.21,0.36 -0.14,-0.01 -0.29,-0.02 -0.44,-0.02 -3.69,0 -6.67,2.99 -6.67,6.67 0,3.68 2.98,6.67 6.67,6.67 0.15,0 0.3,-0.01 0.44,-0.02 -0.69,0.23 -1.44,0.36 -2.21,0.36 -3.87,0 -7.01,-3.14 -7.01,-7.01 0,-3.87 3.14,-7.01 7.01,-7.01z"/>
  <path class="fil19" d="M138.02 128.24c3.29,0 6.11,-0.7 7.26,-1.69 -1.88,0.5 -4.44,0.81 -7.26,0.81 -2.82,0 -5.38,-0.31 -7.26,-0.81 1.16,0.99 3.97,1.69 7.26,1.69z"/>
  <circle class="fil20" cx="121.14" cy="99.88" r="7.82"/>
  <circle class="fil15" cx="121.14" cy="99.88" r="3.11"/>
  <path class="fil15" d="M122.47 83.39c3.29,0 6.11,2.03 7.26,4.91 -1.88,-1.46 -4.44,-2.35 -7.26,-2.35 -2.82,0 -5.38,0.89 -7.26,2.35 1.15,-2.88 3.97,-4.91 7.26,-4.91z"/>
  <circle class="fil20" cx="153.83" cy="99.88" r="7.82"/>
  <circle class="fil15" cx="153.83" cy="99.88" r="3.11"/>
  <path class="fil15" d="M151.44 86.31c-3.23,0.65 -5.59,3.2 -6.15,6.25 1.56,-1.8 3.89,-3.18 6.65,-3.74 2.77,-0.56 5.46,-0.19 7.59,0.87 -1.7,-2.6 -4.87,-4.03 -8.09,-3.38z"/>
  <path class="fil15" d="M124.84 119.12c2.51,17.75 23.94,16.09 26.28,0 -8.76,0 -17.52,0 -26.28,0z"/>
  <g style="clip-path:url(#id5)">
   <g>
    <path id="_1_9" class="fil11" d="M135.91 128.29c0.63,0 1.22,0.09 1.75,0.26 0.53,-0.17 1.12,-0.26 1.75,-0.26 2.23,0 4.03,1.16 4.03,2.58 0,1.43 -1.8,2.58 -4.03,2.58 -0.63,0 -1.22,-0.09 -1.75,-0.25 -0.53,0.16 -1.12,0.25 -1.75,0.25 -2.22,0 -4.03,-1.15 -4.03,-2.58 0,-1.42 1.81,-2.58 4.03,-2.58z"/>
   </g>
  </g>
  <path class="fil3 str0" d="M124.84 119.12c2.51,17.75 23.94,16.09 26.28,0 -8.76,0 -17.52,0 -26.28,0z"/>
  <path class="fil20 str0" d="M125.86 119.91c0.17,1.1 0.53,2.2 1.04,3.3 7.26,0.6 14.56,0.54 21.89,0 0.69,-1.43 1.07,-2.49 1.31,-3.4 -8.08,0.03 -16.16,0.06 -24.24,0.1z"/>
  <path class="fil21" d="M182.28 87.77c3.41,-24.03 7.72,-48.81 -19.87,-47.37 -40.28,-32.88 -57.28,12.38 -83.36,11.45 4.63,4.25 11.25,6.15 18.04,7.83 -6.93,9.96 -6.32,19.34 -2.07,28.45 1.84,-11.77 5.8,-20.4 11.94,-25.79 24.15,4.57 40.73,-0.9 52.41,-12.9 12.47,9.26 17.14,24.2 22.91,38.33z"/>
 </g>
</svg>
