<?xml version="1.0" encoding="UTF-8"?>
<!DOCTYPE svg PUBLIC "-//W3C//DTD SVG 1.1//EN" "http://www.w3.org/Graphics/SVG/1.1/DTD/svg11.dtd">
<!-- Creator: CorelDRAW 2021 (64-Bit) -->
<svg xmlns="http://www.w3.org/2000/svg" xml:space="preserve" width="1920px" height="1920px" version="1.1" style="shape-rendering:geometricPrecision; text-rendering:geometricPrecision; image-rendering:optimizeQuality; fill-rule:evenodd; clip-rule:evenodd"
viewBox="0 0 758.7 758.7"
 xmlns:xlink="http://www.w3.org/1999/xlink"
 xmlns:xodm="http://www.corel.com/coreldraw/odm/2003">
 <defs>
  <style type="text/css">
   <![CDATA[
    .str1 {stroke:#003399;stroke-width:1.98;stroke-linecap:round;stroke-linejoin:round;stroke-miterlimit:22.9256}
    .str0 {stroke:black;stroke-width:0.79;stroke-linecap:round;stroke-linejoin:round;stroke-miterlimit:22.9256}
    .str2 {stroke:white;stroke-width:2.37;stroke-linecap:round;stroke-linejoin:round;stroke-miterlimit:22.9256}
    .fil3 {fill:none}
    .fil15 {fill:black}
    .fil0 {fill:#16368B}
    .fil7 {fill:#16368B}
    .fil4 {fill:#333333}
    .fil8 {fill:#A30B24}
    .fil18 {fill:#BA9A83}
    .fil16 {fill:#CFAB92}
    .fil1 {fill:#E6B800}
    .fil9 {fill:#E6CC05}
    .fil11 {fill:red}
    .fil12 {fill:yellow}
    .fil19 {fill:white}
    .fil14 {fill:#003399;fill-rule:nonzero}
    .fil13 {fill:#A30B24;fill-rule:nonzero}
    .fil10 {fill:white;fill-rule:nonzero}
    .fil6 {fill:black;fill-opacity:0.101961}
    .fil5 {fill:white;fill-opacity:0.301961}
    .fil17 {fill:black;fill-opacity:0.501961}
    .fil2 {fill:#E6C850;fill-opacity:0.501961}
   ]]>
  </style>
   <clipPath id="id0">
    <path d="M0 0l758.7 0 0 758.7 -758.7 0 0 -758.7z"/>
   </clipPath>
   <clipPath id="id1">
    <path d="M285.03 407.19l38.96 0c0.32,0.47 0.68,0.92 1.1,1.34l47.87 47.87c3.52,3.51 9.26,3.51 12.77,0l47.87 -47.87c0.42,-0.42 0.79,-0.87 1.11,-1.34l38.95 0c13.36,0 23.49,10.95 24.28,24.28l12.39 207.68 -265.05 0 15.47 -207.68c0.99,-13.32 10.93,-24.28 24.28,-24.28z"/>
   </clipPath>
   <clipPath id="id2">
    <path d="M323.99 407.19l19.35 0 31.69 31.68c2.37,2.38 6.26,2.38 8.64,0l31.69 -31.68 19.35 0c-0.32,0.47 -0.69,0.92 -1.11,1.34l-47.87 47.87c-3.51,3.51 -9.25,3.51 -12.77,0l-47.87 -47.87c-0.42,-0.42 -0.78,-0.87 -1.1,-1.34z"/>
   </clipPath>
   <clipPath id="id3">
    <path d="M680.41 23.1c30.9,0 55.95,25.05 55.95,55.95 0,30.9 -25.05,55.95 -55.95,55.95 -30.9,0 -55.96,-25.05 -55.96,-55.95 0,-30.9 25.06,-55.95 55.96,-55.95z"/>
   </clipPath>
   <clipPath id="id4">
    <path d="M379.41 118.69c61.74,0 112.71,50.44 120.45,115.73 14.17,1.96 25.09,14.12 25.09,28.83 0,16.08 -13.04,29.12 -29.12,29.12 -0.25,0 -0.5,0 -0.75,-0.01 -13.69,46.72 -50.33,82.18 -95.39,90.47l0 24.41 15.73 0 -31.68 31.68c-2.38,2.38 -6.27,2.38 -8.65,0l-31.69 -31.68 15.73 0 0 -24.41c-45.05,-8.29 -81.69,-43.75 -95.38,-90.47l-0.76 0.01c-16.08,0 -29.11,-13.04 -29.11,-29.12 0,-14.71 10.91,-26.87 25.09,-28.83 7.73,-65.29 58.71,-115.73 120.44,-115.73z"/>
   </clipPath>
 </defs>
 <g id="Capa_x0020_1">
  <metadata id="CorelCorpID_0Corel-Layer"/>
  <polygon class="fil0" points="0,0 758.7,0 758.7,758.7 0,758.7 "/>
  <g style="clip-path:url(#id0)">
   <g id="_3075451098512">
    <rect class="fil1 str0" x="-45.37" y="-33.69" width="843.14" height="821.13"/>
    <path class="fil2" d="M667.04 653.16c35.31,-155.86 -23.1,-358.05 -204.34,-364.61 176.74,74.23 170.03,290.73 78.78,435.85 81.74,-137.32 88.67,-347.66 -81.66,-409.9 145.14,125.21 71.86,329.04 -59.77,438.86 120.18,-105.34 191.77,-303.24 49,-415.08 99.35,163.94 -33.33,335.15 -192.46,398.91 146.85,-63.04 276.09,-229.13 174.87,-379.61 43.83,186.61 -135.27,308.44 -306.31,319.91 159.15,-14.58 333.39,-132.6 283.62,-307 -15.98,191.03 -223.96,251.54 -390.17,209.6 155.86,35.32 358.04,-23.09 364.6,-204.33 -74.23,176.74 -290.73,170.03 -435.85,78.78 137.33,81.74 347.66,88.67 409.9,-81.67 -125.21,145.15 -329.04,71.87 -438.85,-59.76 105.34,120.18 303.23,191.76 415.07,49 -163.94,99.35 -335.14,-33.34 -398.91,-192.46 63.05,146.85 229.14,276.09 379.62,174.87 -186.62,43.83 -308.44,-135.27 -319.92,-306.31 14.59,159.15 132.61,333.39 307,283.62 -191.02,-15.98 -251.54,-223.96 -209.6,-390.17 -35.31,155.85 23.1,358.05 204.33,364.6 -176.74,-74.23 -170.02,-290.73 -78.77,-435.85 -81.75,137.32 -88.68,347.66 81.66,409.9 -145.15,-125.21 -71.86,-329.04 59.77,-438.86 -120.18,105.34 -191.77,303.25 -49,415.08 -99.36,-163.94 33.33,-335.15 192.45,-398.91 -146.84,63.04 -276.09,229.14 -174.87,379.61 -43.83,-186.61 135.27,-308.44 306.31,-319.91 -159.14,14.58 -333.39,132.61 -283.62,307 15.99,-191.03 223.97,-251.55 390.18,-209.6 -155.86,-35.31 -358.05,23.1 -364.6,204.33 74.23,-176.74 290.72,-170.03 435.84,-78.77 -137.32,-81.75 -347.66,-88.68 -409.9,81.66 125.21,-145.15 329.05,-71.87 438.86,59.76 -105.34,-120.17 -303.25,-191.76 -415.07,-49 163.93,-99.35 335.14,33.34 398.91,192.46 -63.05,-146.85 -229.15,-276.1 -379.62,-174.87 186.62,-43.83 308.44,135.27 319.91,306.31 -14.58,-159.15 -132.6,-333.39 -307,-283.62 191.03,15.98 251.55,223.96 209.61,390.18z"/>
   </g>
  </g>
  <polygon class="fil3" points="0,0 758.7,0 758.7,758.7 0,758.7 "/>
  <path class="fil3 str1" d="M44.03 22.91l646.44 0c11.34,0 44.81,31.25 44.81,42.59l0 607.43c0,11.34 -9.28,20.62 -20.62,20.62l-670.63 0c-11.34,0 -20.62,-9.28 -20.62,-20.62l0 -629.4c0,-11.34 9.28,-20.62 20.62,-20.62z"/>
  <path class="fil4" d="M285.03 407.19l38.96 0c0.32,0.47 0.68,0.92 1.1,1.34l47.87 47.87c3.52,3.51 9.26,3.51 12.77,0l47.87 -47.87c0.42,-0.42 0.79,-0.87 1.11,-1.34l38.95 0c13.36,0 23.49,10.95 24.28,24.28l12.39 207.68 -265.05 0 15.47 -207.68c0.99,-13.32 10.93,-24.28 24.28,-24.28z"/>
  <g style="clip-path:url(#id1)">
   <g id="_3075451102688">
    <g>
     <path id="_1" class="fil5" d="M185.83 357.18l193.52 0 0 54.3 -80.92 0c-10.97,0 -19.94,8.97 -19.94,19.94l0 288.73c0,2 0.3,3.93 0.85,5.75l-93.51 0 0 -368.72z"/>
     <path class="fil6" d="M572.86 357.18l-193.51 0 0 54.3 82.28 0c10.96,0 19.93,8.97 19.93,19.94l0 175.7c-106.59,12.37 -208.85,6.17 -306.99,-17.67 0,47.25 0,94.5 0,141.75 136.97,0 273.95,0 410.92,0 0,-47.25 0,-94.5 0,-141.75 -4.22,0.94 -8.43,1.85 -12.63,2.73l0 -235z"/>
    </g>
    <rect class="fil7" x="193.23" y="365.62" width="74.45" height="305.37"/>
    <rect class="fil8" x="267.68" y="365.62" width="74.45" height="305.37"/>
    <rect class="fil7" x="342.12" y="365.62" width="74.45" height="305.37"/>
    <rect class="fil8" x="416.57" y="365.62" width="74.45" height="305.37"/>
    <rect class="fil7" x="491.02" y="365.62" width="74.45" height="305.37"/>
   </g>
  </g>
  <path class="fil3" d="M285.03 407.19l38.96 0c0.32,0.47 0.68,0.92 1.1,1.34l47.87 47.87c3.52,3.51 9.26,3.51 12.77,0l47.87 -47.87c0.42,-0.42 0.79,-0.87 1.11,-1.34l38.95 0c13.36,0 23.49,10.95 24.28,24.28l12.39 207.68 -265.05 0 15.47 -207.68c0.99,-13.32 10.93,-24.28 24.28,-24.28z"/>
  <path class="fil9" d="M323.99 407.19l19.35 0 31.69 31.68c2.37,2.38 6.26,2.38 8.64,0l31.69 -31.68 19.35 0c-0.32,0.47 -0.69,0.92 -1.11,1.34l-47.87 47.87c-3.51,3.51 -9.25,3.51 -12.77,0l-47.87 -47.87c-0.42,-0.42 -0.78,-0.87 -1.1,-1.34z"/>
  <g style="clip-path:url(#id2)">
  </g>
  <path id="_1_0" class="fil3" d="M323.99 407.19l19.35 0 31.69 31.68c2.37,2.38 6.26,2.38 8.64,0l31.69 -31.68 19.35 0c-0.32,0.47 -0.69,0.92 -1.11,1.34l-47.87 47.87c-3.51,3.51 -9.25,3.51 -12.77,0l-47.87 -47.87c-0.42,-0.42 -0.78,-0.87 -1.1,-1.34z"/>
  <path class="fil10" d="M358.91 555.7c2.06,1.62 4.28,2.84 6.7,3.64 2.42,0.8 5.02,1.19 7.8,1.19 5.44,0 9.67,-1.52 12.69,-4.56 3.03,-3.05 4.55,-7.33 4.55,-12.83 0,-5.65 -1.47,-10.04 -4.38,-13.18 -2.93,-3.14 -6.98,-4.7 -12.19,-4.7 -2.86,0 -5.46,0.59 -7.82,1.79 -2.38,1.18 -4.59,3.02 -6.68,5.52l-7.74 -0.35 3.52 -36.98c3.74,1.22 7.59,2.13 11.51,2.74 3.92,0.61 8.04,0.91 12.36,0.91 4.46,0 8.76,-0.3 12.86,-0.89 4.11,-0.59 8.05,-1.47 11.8,-2.65 -1.52,5.54 -4.64,9.65 -9.38,12.31 -4.72,2.68 -11.15,4.02 -19.31,4.02 -1.48,0 -3.2,-0.08 -5.16,-0.25 -1.96,-0.17 -4.41,-0.46 -7.4,-0.88l-0.87 10.49c2.97,-1.37 5.91,-2.4 8.83,-3.09 2.93,-0.68 5.82,-1.02 8.73,-1.02 8.18,0 14.9,2.34 20.18,7 5.27,4.66 7.92,10.54 7.92,17.67 0,8.3 -2.66,14.83 -7.99,19.62 -5.33,4.79 -12.65,7.19 -21.94,7.19 -8.54,0 -15.47,-1.79 -20.77,-5.36 -5.31,-3.6 -7.98,-8.19 -7.98,-13.8 0,-2.93 0.99,-5.36 2.95,-7.34 1.96,-1.96 4.42,-2.95 7.35,-2.95 2.77,0 5.06,0.76 6.81,2.28 1.77,1.52 2.64,3.5 2.64,5.96 0,2.62 -0.85,4.7 -2.59,6.22 -1.73,1.52 -4.07,2.28 -7,2.28z"/>
  <circle class="fil1" cx="680.41" cy="79.05" r="67.9"/>
  <g>
  </g>
  <g style="clip-path:url(#id3)">
   <g>
    <rect class="fil11" x="606.01" y="23.14" width="168.83" height="37.17"/>
    <rect class="fil12" x="606.01" y="60.32" width="168.83" height="37.17"/>
    <rect class="fil11" x="606.01" y="97.49" width="168.83" height="37.17"/>
   </g>
  </g>
  <path class="fil3 str2" d="M680.41 23.1c30.9,0 55.95,25.05 55.95,55.95 0,30.9 -25.05,55.95 -55.95,55.95 -30.9,0 -55.96,-25.05 -55.96,-55.95 0,-30.9 25.06,-55.95 55.96,-55.95z"/>
  <path class="fil13" d="M136.75 725.84l0.52 -2.61 -1.96 0c-0.33,0 -0.63,-0.12 -0.87,-0.37 -0.24,-0.25 -0.36,-0.54 -0.36,-0.88l0 -0.02c0,-0.34 0.12,-0.63 0.36,-0.88 0.24,-0.24 0.54,-0.36 0.87,-0.36l2.47 0 0.56 -2.77c0.07,-0.33 0.25,-0.59 0.54,-0.78 0.21,-0.14 0.44,-0.2 0.69,-0.2 0.08,0 0.18,0 0.28,0.02l0.02 0.01c0.3,0.06 0.55,0.23 0.75,0.51 0.14,0.21 0.2,0.44 0.2,0.68 0,0.09 -0.01,0.18 -0.02,0.27l-0.45 2.26 2.54 0 0.56 -2.77c0.07,-0.33 0.25,-0.59 0.54,-0.78 0.21,-0.14 0.43,-0.2 0.67,-0.2 0.09,0 0.18,0 0.27,0.02l0.03 0.01c0.32,0.06 0.57,0.23 0.77,0.51 0.13,0.21 0.2,0.44 0.2,0.68 0,0.09 -0.01,0.18 -0.02,0.27l-0.45 2.26 2 0c0.34,0 0.63,0.12 0.86,0.36 0.25,0.25 0.37,0.54 0.37,0.88l0 0.02c0,0.34 -0.12,0.63 -0.37,0.88 -0.23,0.25 -0.52,0.37 -0.86,0.37l-2.51 0 -0.53 2.61 2.14 0c0.35,0 0.64,0.13 0.87,0.37 0.25,0.25 0.37,0.54 0.37,0.88l0 0.03c0,0.33 -0.12,0.62 -0.37,0.87 -0.23,0.24 -0.52,0.37 -0.87,0.37l-2.64 0 -0.6 2.97c-0.06,0.34 -0.24,0.6 -0.53,0.79 -0.21,0.13 -0.44,0.2 -0.68,0.2 -0.08,0 -0.18,-0.01 -0.26,-0.02l-0.04 -0.01c-0.31,-0.07 -0.57,-0.24 -0.76,-0.52 -0.14,-0.21 -0.22,-0.43 -0.22,-0.68 0,-0.08 0.02,-0.17 0.04,-0.26l0.48 -2.47 -2.54 0 -0.6 2.97c-0.06,0.34 -0.24,0.6 -0.53,0.79 -0.21,0.13 -0.44,0.2 -0.7,0.2 -0.08,0 -0.18,-0.01 -0.28,-0.02l-0.02 -0.01c-0.3,-0.07 -0.55,-0.24 -0.74,-0.52 -0.14,-0.21 -0.21,-0.43 -0.21,-0.68 0,-0.08 0.01,-0.17 0.03,-0.26l0.48 -2.47 -1.82 0c-0.34,0 -0.64,-0.13 -0.88,-0.37 -0.24,-0.25 -0.36,-0.54 -0.36,-0.87l0 -0.03c0,-0.34 0.12,-0.63 0.36,-0.88 0.24,-0.24 0.54,-0.37 0.88,-0.37l2.33 0zm3.1 -2.61l-0.53 2.61 2.54 0 0.52 -2.61 -2.53 0z"/>
  <path id="_1_1" class="fil13" d="M156.01 715.71c1.66,0 3.08,0.59 4.26,1.77 1.19,1.18 1.78,2.6 1.78,4.25l0 5.48c0,1.66 -0.59,3.08 -1.78,4.27 -1.18,1.18 -2.6,1.77 -4.26,1.77 -1.65,0 -3.07,-0.59 -4.25,-1.77 -1.19,-1.19 -1.78,-2.61 -1.78,-4.27l0 -5.48c0,-1.65 0.59,-3.07 1.78,-4.25 1.18,-1.18 2.6,-1.77 4.25,-1.77zm0 2.8c-0.91,0 -1.68,0.32 -2.32,0.97 -0.64,0.64 -0.96,1.42 -0.96,2.32l0 5.34c0,0.91 0.32,1.69 0.96,2.33 0.64,0.64 1.41,0.97 2.32,0.97 0.91,0 1.68,-0.33 2.32,-0.97 0.65,-0.64 0.97,-1.42 0.97,-2.33l0 -5.34c0,-0.9 -0.32,-1.68 -0.97,-2.32 -0.64,-0.65 -1.41,-0.97 -2.32,-0.97z"/>
  <path id="_2" class="fil13" d="M170.32 715.71c1.66,0 3.08,0.59 4.26,1.77 1.19,1.18 1.78,2.6 1.78,4.25l0 5.48c0,1.66 -0.59,3.08 -1.78,4.27 -1.18,1.18 -2.6,1.77 -4.26,1.77 -1.65,0 -3.07,-0.59 -4.25,-1.77 -1.19,-1.19 -1.78,-2.61 -1.78,-4.27l0 -5.48c0,-1.65 0.59,-3.07 1.78,-4.25 1.18,-1.18 2.6,-1.77 4.25,-1.77zm0 2.8c-0.91,0 -1.68,0.32 -2.32,0.97 -0.64,0.64 -0.96,1.42 -0.96,2.32l0 5.34c0,0.91 0.32,1.69 0.96,2.33 0.64,0.64 1.41,0.97 2.32,0.97 0.91,0 1.68,-0.33 2.32,-0.97 0.65,-0.64 0.97,-1.42 0.97,-2.33l0 -5.34c0,-0.9 -0.32,-1.68 -0.97,-2.32 -0.64,-0.65 -1.41,-0.97 -2.32,-0.97z"/>
  <path id="_3" class="fil13" d="M185.03 715.72c1.37,0 2.54,0.48 3.5,1.45 0.97,0.96 1.45,2.12 1.45,3.49 0,1.19 -0.48,2.28 -1.43,3.25 -0.57,0.59 -1.57,1.32 -3,2.2 -1.42,0.89 -2.38,1.58 -2.88,2.07 -0.83,0.81 -1.24,1.59 -1.24,2.32l7.31 0c0.38,0 0.7,0.13 0.95,0.41 0.27,0.26 0.4,0.59 0.4,0.96l0 0.02c0,0.38 -0.13,0.7 -0.4,0.96 -0.25,0.27 -0.57,0.4 -0.95,0.4l-8.78 0c-0.37,0 -0.68,-0.13 -0.96,-0.4 -0.27,-0.26 -0.4,-0.58 -0.4,-0.96l0 -1.05c0,-1.38 0.48,-2.62 1.43,-3.74 0.65,-0.76 1.66,-1.58 3.04,-2.46 1.67,-1.07 2.64,-1.73 2.94,-1.96 0.81,-0.68 1.22,-1.36 1.22,-2.02 0,-0.61 -0.21,-1.12 -0.64,-1.55 -0.43,-0.44 -0.95,-0.65 -1.56,-0.65l-4.51 0c-0.38,0 -0.7,-0.13 -0.97,-0.4 -0.26,-0.26 -0.4,-0.59 -0.4,-0.96l0 -0.02c0,-0.38 0.14,-0.7 0.4,-0.97 0.27,-0.26 0.59,-0.39 0.97,-0.39l4.51 0z"/>
  <path id="_4" class="fil13" d="M197.17 731.94c0,0.34 -0.13,0.64 -0.4,0.91 -0.27,0.27 -0.59,0.4 -0.96,0.4l-0.03 0c-0.38,0 -0.69,-0.13 -0.95,-0.4 -0.27,-0.26 -0.4,-0.59 -0.4,-1l4.04 -13.39 -5.78 0c-0.37,0 -0.69,-0.13 -0.96,-0.4 -0.26,-0.26 -0.4,-0.59 -0.4,-0.96l0 -0.02c0,-0.38 0.14,-0.7 0.4,-0.97 0.27,-0.26 0.59,-0.39 0.96,-0.39l7.61 0c0.37,0 0.69,0.13 0.96,0.39 0.26,0.27 0.4,0.61 0.4,1.01l-4.49 14.82z"/>
  <path class="fil14" d="M53.9 720.52l7.95 0c0.61,0 1.15,0.22 1.62,0.67 0.45,0.45 0.68,1 0.68,1.64l0 0.04c0,0.64 -0.23,1.18 -0.68,1.62 -0.47,0.45 -1.01,0.68 -1.62,0.68l-7.95 0 0 10.26c0,0.64 -0.23,1.18 -0.69,1.62 -0.46,0.45 -1,0.68 -1.62,0.68l-0.06 0c-0.62,0 -1.16,-0.23 -1.62,-0.68 -0.46,-0.44 -0.68,-0.98 -0.68,-1.62l0 -20.52c0,-1.91 0.68,-3.55 2.04,-4.91 1.36,-1.36 3,-2.04 4.92,-2.04l5.85 0c0.62,0 1.16,0.22 1.62,0.66 0.45,0.47 0.68,1.01 0.68,1.64l0 0.04c0,0.64 -0.23,1.19 -0.68,1.64 -0.46,0.44 -1,0.67 -1.62,0.67l-5.85 0c-0.64,0 -1.18,0.22 -1.62,0.67 -0.45,0.44 -0.67,0.99 -0.67,1.63l0 5.61z"/>
  <path id="_1_2" class="fil14" d="M81.23 707.96c1.25,0 2.49,0.15 3.69,0.46 1.17,0.3 1.76,1.04 1.76,2.23l0 0.06c0,0.74 -0.31,1.36 -0.92,1.82 -0.4,0.32 -0.85,0.48 -1.33,0.48 -0.2,0 -0.41,-0.03 -0.63,-0.08 -0.86,-0.21 -1.71,-0.32 -2.57,-0.32 -2.83,0 -5.23,1 -7.23,2.99 -1.99,2 -2.99,4.41 -2.99,7.25 0,2.83 1,5.25 2.99,7.24 2,1.98 4.4,2.97 7.23,2.97 0.86,0 1.71,-0.1 2.57,-0.31 0.22,-0.04 0.43,-0.07 0.63,-0.07 0.48,0 0.93,0.16 1.33,0.48 0.61,0.45 0.92,1.06 0.92,1.83l0 0.03c0,1.2 -0.59,1.95 -1.76,2.25 -1.2,0.31 -2.44,0.46 -3.69,0.46 -4.11,0 -7.61,-1.46 -10.52,-4.36 -2.92,-2.91 -4.37,-6.42 -4.37,-10.52 0,-4.11 1.45,-7.62 4.37,-10.52 2.91,-2.92 6.41,-4.37 10.52,-4.37z"/>
  <path id="_2_3" class="fil14" d="M94.58 720.08l5.25 -0.02c1.04,0 1.92,-0.36 2.64,-1.07 0.73,-0.72 1.09,-1.6 1.09,-2.64 0,-1.03 -0.36,-1.91 -1.09,-2.63 -0.73,-0.74 -1.62,-1.11 -2.64,-1.11l-4.54 0c-0.21,0 -0.38,0.07 -0.52,0.21 -0.12,0.14 -0.19,0.31 -0.19,0.51l0 6.75zm-4.67 -6.75c0,-1.49 0.53,-2.75 1.58,-3.81 1.06,-1.04 2.33,-1.56 3.8,-1.56l4.54 0c2.32,0 4.3,0.82 5.94,2.46 1.64,1.64 2.46,3.61 2.46,5.93 0,2.61 -0.82,4.61 -2.46,5.98 1.94,1.47 2.9,3.66 2.9,6.58 0,2.43 -0.87,4.5 -2.59,6.23 -1.73,1.73 -3.81,2.59 -6.25,2.59l-4.54 0c-1.47,0 -2.74,-0.53 -3.8,-1.58 -1.05,-1.05 -1.58,-2.32 -1.58,-3.79l0 -19.03zm9.92 19.73c1.15,0 2.14,-0.4 2.95,-1.2 0.8,-0.81 1.2,-1.8 1.2,-2.95 0,-1.16 -0.4,-2.15 -1.2,-2.96 -0.81,-0.81 -1.8,-1.22 -2.95,-1.22l-5.25 0 0 7.63c0,0.2 0.07,0.37 0.19,0.51 0.14,0.12 0.31,0.19 0.52,0.19l4.54 0z"/>
  <path class="fil14" d="M483.13 730.78c0,0.63 0.23,1.17 0.67,1.62 0.44,0.44 0.98,0.66 1.62,0.66l5.54 0c0.64,0 1.19,0.23 1.64,0.69 0.46,0.45 0.69,1 0.69,1.64l0 0.04c0,0.64 -0.23,1.18 -0.69,1.62 -0.45,0.45 -1,0.68 -1.64,0.68l-5.54 0c-1.92,0 -3.56,-0.68 -4.92,-2.04 -1.36,-1.36 -2.04,-2.99 -2.04,-4.91l0 -20.52c0,-0.63 0.23,-1.17 0.69,-1.64 0.45,-0.44 0.99,-0.66 1.62,-0.66l0.06 0c0.62,0 1.16,0.22 1.62,0.66 0.45,0.47 0.68,1.01 0.68,1.64l0 20.52z"/>
  <path id="_1_4" class="fil14" d="M515.3 735.43c0,0.64 -0.23,1.18 -0.68,1.62 -0.46,0.45 -1,0.68 -1.62,0.68l-0.06 0c-0.62,0 -1.16,-0.23 -1.62,-0.68 -0.46,-0.44 -0.68,-0.98 -0.68,-1.62l0 -8.51 -10.39 0 0 8.51c0,0.64 -0.23,1.18 -0.69,1.62 -0.46,0.45 -1,0.68 -1.62,0.68l-0.06 0c-0.62,0 -1.16,-0.23 -1.62,-0.68 -0.46,-0.44 -0.69,-0.98 -0.69,-1.62l0 -17.62c0,-2.72 0.97,-5.04 2.91,-6.97 1.93,-1.92 4.24,-2.88 6.95,-2.88 2.72,0 5.04,0.96 6.97,2.88 1.94,1.93 2.9,4.25 2.9,6.97l0 17.62zm-4.66 -13.16l0 -4.46c0,-1.43 -0.51,-2.66 -1.51,-3.68 -1.02,-1.01 -2.25,-1.52 -3.7,-1.52 -1.44,0 -2.66,0.51 -3.68,1.52 -1,1.02 -1.5,2.25 -1.5,3.68l0 4.46 10.39 0z"/>
  <path id="_2_5" class="fil14" d="M536 730.78c0,0.63 0.23,1.17 0.67,1.62 0.44,0.44 0.98,0.66 1.62,0.66l5.54 0c0.64,0 1.19,0.23 1.64,0.69 0.47,0.45 0.69,1 0.69,1.64l0 0.04c0,0.64 -0.22,1.18 -0.69,1.62 -0.45,0.45 -1,0.68 -1.64,0.68l-5.54 0c-1.92,0 -3.56,-0.68 -4.92,-2.04 -1.36,-1.36 -2.03,-2.99 -2.03,-4.91l0 -20.52c0,-0.63 0.22,-1.17 0.68,-1.64 0.45,-0.44 0.99,-0.66 1.62,-0.66l0.06 0c0.62,0 1.16,0.22 1.62,0.66 0.45,0.47 0.68,1.01 0.68,1.64l0 20.52z"/>
  <path id="_3_6" class="fil14" d="M551.38 707.96c0.62,0 1.16,0.22 1.62,0.66 0.46,0.47 0.69,1.01 0.69,1.64l0 25.17c0,0.64 -0.23,1.18 -0.69,1.62 -0.46,0.45 -1,0.68 -1.62,0.68l-0.05 0c-0.63,0 -1.17,-0.23 -1.62,-0.68 -0.46,-0.44 -0.69,-0.98 -0.69,-1.62l0 -25.17c0,-0.63 0.23,-1.17 0.69,-1.64 0.45,-0.44 0.99,-0.66 1.62,-0.66l0.05 0z"/>
  <path id="_4_7" class="fil14" d="M572.76 707.96c4.36,0 8.02,1.6 10.97,4.8 0.41,0.46 0.63,0.98 0.63,1.56 0,0.09 -0.01,0.18 -0.02,0.25 -0.09,0.7 -0.4,1.24 -0.94,1.6l-0.04 0.04c-0.41,0.31 -0.86,0.46 -1.33,0.46 -0.09,0 -0.18,-0.01 -0.27,-0.02 -0.57,-0.05 -1.06,-0.3 -1.46,-0.74 -2.02,-2.2 -4.54,-3.3 -7.54,-3.3 -2.81,0 -5.22,1 -7.22,2.99 -1.99,2 -2.99,4.41 -2.99,7.25 0,2.83 1,5.25 2.99,7.24 2,1.98 4.41,2.97 7.22,2.97 2.54,0 4.75,-0.82 6.66,-2.46 1.89,-1.63 3.01,-3.43 3.34,-5.43l-9.51 0c-0.64,0 -1.19,-0.23 -1.64,-0.68 -0.45,-0.45 -0.67,-0.99 -0.67,-1.62l0 -0.04c0,-0.64 0.22,-1.19 0.67,-1.64 0.45,-0.45 1,-0.67 1.64,-0.67l12.1 0c0.63,0 1.18,0.22 1.64,0.67 0.44,0.45 0.67,1 0.69,1.64l0 0.02c0,4.1 -1.46,7.61 -4.37,10.52 -2.93,2.9 -6.44,4.36 -10.55,4.36 -4.09,0 -7.6,-1.46 -10.51,-4.36 -2.91,-2.91 -4.37,-6.42 -4.37,-10.52 0,-4.11 1.46,-7.62 4.37,-10.52 2.91,-2.92 6.42,-4.37 10.51,-4.37z"/>
  <path id="_5" class="fil14" d="M611.02 735.43c0,0.64 -0.23,1.18 -0.68,1.62 -0.46,0.45 -1,0.68 -1.62,0.68l-0.06 0c-0.62,0 -1.16,-0.23 -1.62,-0.68 -0.46,-0.44 -0.69,-0.98 -0.69,-1.62l0 -8.51 -10.39 0 0 8.51c0,0.64 -0.22,1.18 -0.68,1.62 -0.46,0.45 -1,0.68 -1.62,0.68l-0.06 0c-0.62,0 -1.16,-0.23 -1.62,-0.68 -0.46,-0.44 -0.69,-0.98 -0.69,-1.62l0 -17.62c0,-2.72 0.97,-5.04 2.9,-6.97 1.94,-1.92 4.25,-2.88 6.96,-2.88 2.72,0 5.04,0.96 6.97,2.88 1.94,1.93 2.9,4.25 2.9,6.97l0 17.62zm-4.67 -13.16l0 -4.46c0,-1.43 -0.5,-2.66 -1.51,-3.68 -1.01,-1.01 -2.24,-1.52 -3.69,-1.52 -1.44,0 -2.66,0.51 -3.68,1.52 -1,1.02 -1.51,2.25 -1.51,3.68l0 4.46 10.39 0z"/>
  <path id="_6" class="fil14" d="M641.08 707.96c1.26,0 2.49,0.15 3.7,0.46 1.17,0.3 1.75,1.04 1.75,2.23l0 0.06c0,0.74 -0.3,1.36 -0.91,1.82 -0.41,0.32 -0.86,0.48 -1.34,0.48 -0.2,0 -0.41,-0.03 -0.63,-0.08 -0.85,-0.21 -1.7,-0.32 -2.57,-0.32 -2.82,0 -5.23,1 -7.23,2.99 -1.99,2 -2.98,4.41 -2.98,7.25 0,2.83 0.99,5.25 2.98,7.24 2,1.98 4.41,2.97 7.23,2.97 0.87,0 1.72,-0.1 2.57,-0.31 0.22,-0.04 0.43,-0.07 0.63,-0.07 0.48,0 0.93,0.16 1.34,0.48 0.61,0.45 0.91,1.06 0.91,1.83l0 0.03c0,1.2 -0.58,1.95 -1.75,2.25 -1.21,0.31 -2.44,0.46 -3.7,0.46 -4.1,0 -7.61,-1.46 -10.52,-4.36 -2.91,-2.91 -4.36,-6.42 -4.36,-10.52 0,-4.11 1.45,-7.62 4.36,-10.52 2.91,-2.92 6.42,-4.37 10.52,-4.37z"/>
  <path id="_7" class="fil14" d="M654.63 730.78c0,0.63 0.22,1.17 0.67,1.62 0.44,0.44 0.98,0.66 1.62,0.66l5.54 0c0.64,0 1.18,0.23 1.64,0.69 0.46,0.45 0.69,1 0.69,1.64l0 0.04c0,0.64 -0.23,1.18 -0.69,1.62 -0.46,0.45 -1,0.68 -1.64,0.68l-5.54 0c-1.92,0 -3.56,-0.68 -4.92,-2.04 -1.36,-1.36 -2.04,-2.99 -2.04,-4.91l0 -20.52c0,-0.63 0.23,-1.17 0.68,-1.64 0.46,-0.44 1,-0.66 1.62,-0.66l0.06 0c0.63,0 1.17,0.22 1.62,0.66 0.46,0.47 0.69,1.01 0.69,1.64l0 20.52z"/>
  <path id="_8" class="fil14" d="M686.8 727.87c0,2.72 -0.97,5.05 -2.9,6.97 -1.93,1.93 -4.25,2.89 -6.97,2.89 -2.71,0 -5.02,-0.96 -6.96,-2.89 -1.93,-1.92 -2.9,-4.25 -2.9,-6.97l0 -17.61c0,-0.63 0.23,-1.17 0.69,-1.64 0.46,-0.44 1,-0.66 1.62,-0.66l0.06 0c0.62,0 1.16,0.22 1.62,0.66 0.46,0.47 0.68,1.01 0.68,1.64l0 17.61c0,1.44 0.5,2.67 1.51,3.69 1.02,1 2.24,1.5 3.68,1.5 1.45,0 2.68,-0.5 3.69,-1.5 1.01,-1.02 1.51,-2.25 1.51,-3.69l0 -17.61c0,-0.63 0.23,-1.17 0.69,-1.64 0.46,-0.44 1,-0.66 1.62,-0.66l0.05 0c0.63,0 1.17,0.22 1.62,0.66 0.46,0.47 0.69,1.01 0.69,1.64l0 17.61z"/>
  <path id="_9" class="fil14" d="M695.66 720.08l5.25 -0.02c1.04,0 1.92,-0.36 2.65,-1.07 0.72,-0.72 1.08,-1.6 1.08,-2.64 0,-1.03 -0.36,-1.91 -1.08,-2.63 -0.74,-0.74 -1.62,-1.11 -2.65,-1.11l-4.54 0c-0.2,0 -0.37,0.07 -0.52,0.21 -0.12,0.14 -0.19,0.31 -0.19,0.51l0 6.75zm-4.67 -6.75c0,-1.49 0.53,-2.75 1.58,-3.81 1.07,-1.04 2.33,-1.56 3.8,-1.56l4.54 0c2.32,0 4.31,0.82 5.94,2.46 1.64,1.64 2.46,3.61 2.46,5.93 0,2.61 -0.82,4.61 -2.46,5.98 1.94,1.47 2.9,3.66 2.9,6.58 0,2.43 -0.87,4.5 -2.59,6.23 -1.73,1.73 -3.81,2.59 -6.25,2.59l-4.54 0c-1.47,0 -2.73,-0.53 -3.8,-1.58 -1.05,-1.05 -1.58,-2.32 -1.58,-3.79l0 -19.03zm9.92 19.73c1.15,0 2.14,-0.4 2.95,-1.2 0.8,-0.81 1.2,-1.8 1.2,-2.95 0,-1.16 -0.4,-2.15 -1.2,-2.96 -0.81,-0.81 -1.8,-1.22 -2.95,-1.22l-5.25 0 0 7.63c0,0.2 0.07,0.37 0.19,0.51 0.15,0.12 0.32,0.19 0.52,0.19l4.54 0z"/>
  <ellipse class="fil15" cx="377.81" cy="639.68" rx="132.52" ry="14.76"/>
  <path class="fil16" d="M379.41 118.69c61.74,0 112.71,50.44 120.45,115.73 14.17,1.96 25.09,14.12 25.09,28.83 0,16.08 -13.04,29.12 -29.12,29.12 -0.25,0 -0.5,0 -0.75,-0.01 -13.69,46.72 -50.33,82.18 -95.39,90.47l0 24.41 15.73 0 -31.68 31.68c-2.38,2.38 -6.27,2.38 -8.65,0l-31.69 -31.68 15.73 0 0 -24.41c-45.05,-8.29 -81.69,-43.75 -95.38,-90.47l-0.76 0.01c-16.08,0 -29.11,-13.04 -29.11,-29.12 0,-14.71 10.91,-26.87 25.09,-28.83 7.73,-65.29 58.71,-115.73 120.44,-115.73z"/>
  <g style="clip-path:url(#id4)">
   <g>
    <path id="_1_8" class="fil17" d="M451.81 358.67c-3.6,22.05 -34.75,39.29 -72.65,39.29 -37.91,0 -69.06,-17.24 -72.66,-39.29 20.33,16.28 45.46,25.91 72.66,25.91 27.2,0 52.32,-9.63 72.65,-25.91z"/>
   </g>
  </g>
  <path class="fil3" d="M379.41 118.69c61.74,0 112.71,50.44 120.45,115.73 14.17,1.96 25.09,14.12 25.09,28.83 0,16.08 -13.04,29.12 -29.12,29.12 -0.25,0 -0.5,0 -0.75,-0.01 -13.69,46.72 -50.33,82.18 -95.39,90.47l0 24.41 15.73 0 -31.68 31.68c-2.38,2.38 -6.27,2.38 -8.65,0l-31.69 -31.68 15.73 0 0 -24.41c-45.05,-8.29 -81.69,-43.75 -95.38,-90.47l-0.76 0.01c-16.08,0 -29.11,-13.04 -29.11,-29.12 0,-14.71 10.91,-26.87 25.09,-28.83 7.73,-65.29 58.71,-115.73 120.44,-115.73z"/>
  <path class="fil16" d="M495.02 243.59c-2.12,0 -4.17,0.35 -6.08,0.98 0.4,-0.02 0.81,-0.04 1.22,-0.04 10.12,0 18.32,8.2 18.32,18.32 0,10.11 -8.2,18.31 -18.32,18.31 -0.41,0 -0.82,-0.01 -1.23,-0.04 1.92,0.64 3.96,0.98 6.09,0.98 10.63,0 19.25,-8.62 19.25,-19.25 0,-10.63 -8.62,-19.26 -19.25,-19.26zm-231.21 0c2.12,0 4.17,0.35 6.08,0.98 -0.41,-0.02 -0.81,-0.04 -1.23,-0.04 -10.11,0 -18.31,8.2 -18.31,18.32 0,10.11 8.2,18.31 18.31,18.31 0.42,0 0.83,-0.01 1.23,-0.04 -1.91,0.64 -3.96,0.98 -6.08,0.98 -10.64,0 -19.26,-8.62 -19.26,-19.25 0,-10.63 8.62,-19.26 19.26,-19.26z"/>
  <path class="fil18" d="M494.77 293.27c-3.1,-1.74 -6.32,-3.41 -9.65,-5 -6.24,9.12 -16.07,17.23 -28.5,23.77 -20.14,-10.6 -47.11,-17.08 -76.76,-17.08 -29.65,0 -56.63,6.48 -76.77,17.08 -12.43,-6.54 -22.26,-14.65 -28.5,-23.77 -3.6,1.72 -7.06,3.53 -10.38,5.42 16.02,52.92 61.55,91.09 115.22,91.09 53.81,0 99.43,-38.38 115.34,-91.51z"/>
  <path class="fil18" d="M499.86 234.5c-3.09,1.73 -19.09,-40.14 -23.56,-42.49 -28.94,15.22 -164.1,15.22 -193.04,0 -4.66,2.45 -20.97,44.38 -24.29,42.49 5.02,-62.51 48.24,-114.59 120.38,-115.79 72.14,-1.2 113.07,58.44 120.51,115.79z"/>
  <g>
   <ellipse class="fil19" cx="422.81" cy="261.76" rx="21.48" ry="10.45"/>
   <circle class="fil15" cx="422.81" cy="261.76" r="8.55"/>
   <path class="fil15" d="M445.53 244.11c-14.58,-1.07 -29.09,-2.78 -44.13,0.61 0.37,-6.81 2.38,-12.96 6.77,-18.14 1.05,2.64 2.11,5.28 3.17,7.93 2.29,-1.12 4.59,-2.23 6.89,-3.35 8.45,2.58 16.91,5.16 25.36,7.74 0.65,1.74 1.29,3.47 1.94,5.21z"/>
   <ellipse class="fil19" cx="336.02" cy="261.76" rx="21.48" ry="10.45"/>
   <circle class="fil15" cx="336.02" cy="261.76" r="8.55"/>
   <path class="fil15" d="M313.3 244.11c14.58,-1.07 29.09,-2.78 44.12,0.61 -0.36,-6.81 -2.37,-12.96 -6.76,-18.14 -1.06,2.64 -2.11,5.28 -3.17,7.93 -2.29,-1.12 -4.59,-2.23 -6.89,-3.35 -8.45,2.58 -16.91,5.16 -25.36,7.74 -0.65,1.74 -1.29,3.47 -1.94,5.21z"/>
  </g>
  <rect class="fil15" x="357.62" y="332.78" width="43.74" height="7.49" rx="2.4" ry="2.4"/>
 </g>
</svg>
